<svg width="21" height="22" viewBox="0 0 21 22" fill="none" xmlns="http://www.w3.org/2000/svg">
<path fill-rule="evenodd" clip-rule="evenodd" d="M5.55023 6.05026C5.89194 5.70855 6.44596 5.70855 6.78766 6.05026L13.9689 13.2315V7.89353C13.9689 7.41029 14.3606 7.01853 14.8439 7.01853C15.3271 7.01853 15.7189 7.41029 15.7189 7.89353V15.331C15.7189 15.8143 15.3271 16.206 14.8439 16.206H14.8316C14.8312 16.206 14.8308 16.206 14.8304 16.206H7.40638C6.92313 16.206 6.53138 15.8143 6.53138 15.331C6.53138 14.8478 6.92313 14.456 7.40638 14.456H12.7186L5.55023 7.28769C5.20852 6.94599 5.20852 6.39197 5.55023 6.05026Z" fill="#EEEEEE"/>
</svg>
