<svg width="24" height="24" viewBox="0 0 24 24" fill="none" xmlns="http://www.w3.org/2000/svg">
<path fill-rule="evenodd" clip-rule="evenodd" d="M10.1631 2.73727C10.8572 1.12534 13.1427 1.12534 13.8369 2.73727L15.4229 6.42017C15.5677 6.75635 15.8846 6.98657 16.249 7.02037L20.2418 7.39069C21.9893 7.55277 22.6956 9.72639 21.377 10.8847L18.3645 13.5312C18.0895 13.7727 17.9685 14.1453 18.049 14.5023L18.9306 18.4141C19.3165 20.1262 17.4675 21.4696 15.9584 20.5735L12.5105 18.5262C12.1958 18.3393 11.8041 18.3393 11.4894 18.5262L8.04154 20.5735C6.53248 21.4696 4.68348 20.1262 5.06936 18.4141L5.95099 14.5023C6.03147 14.1453 5.91044 13.7727 5.63545 13.5312L2.62291 10.8847C1.30438 9.72639 2.01063 7.55277 3.75818 7.39069L7.75094 7.02037C8.1154 6.98657 8.43227 6.75635 8.57704 6.42017L10.1631 2.73727ZM13.586 7.21123L12 3.52832L10.4139 7.21123C9.97963 8.21975 9.02902 8.91042 7.93564 9.01182L3.94288 9.38214L6.95542 12.0286C7.78038 12.7533 8.14348 13.8708 7.90205 14.942L7.02042 18.8538L10.4683 16.8065C11.4125 16.2459 12.5875 16.2459 13.5317 16.8065L16.9795 18.8538L16.0979 14.942C15.8565 13.8708 16.2196 12.7533 17.0445 12.0286L20.0571 9.38214L16.0643 9.01182C14.9709 8.91042 14.0203 8.21975 13.586 7.21123Z" fill="#208AFF"/>
</svg>
