<svg width="24" height="24" viewBox="0 0 24 24" fill="none" xmlns="http://www.w3.org/2000/svg">
<path d="M7.99999 9.00017C8.55227 9.00017 8.99999 8.55245 8.99999 8.00017C8.99999 7.44788 8.55227 7.00017 7.99999 7.00017C7.4477 7.00017 6.99999 7.44788 6.99999 8.00017C6.99999 8.55245 7.4477 9.00017 7.99999 9.00017Z" fill="white"/>
<path fill-rule="evenodd" clip-rule="evenodd" d="M12.1634 2.05881C11.6504 1.96217 11.1228 2.00305 10.4301 2.05671L7.49848 2.28227C6.80859 2.33532 6.23443 2.37948 5.76475 2.45237C5.27379 2.52856 4.82325 2.64576 4.39813 2.88301C3.76231 3.23786 3.23767 3.76249 2.88283 4.39831C2.64557 4.82343 2.52838 5.27397 2.45219 5.76493C2.3793 6.23461 2.33514 6.80877 2.28208 7.49866L2.05653 10.4303C2.00286 11.123 1.96198 11.6506 2.05863 12.1636C2.1403 12.5972 2.29444 13.0138 2.51458 13.3962C2.77509 13.8486 3.14948 14.2226 3.64101 14.7136L8.65461 19.7271C9.16796 20.2405 9.59262 20.6651 9.96583 20.9858C10.3535 21.3189 10.7457 21.5939 11.2112 21.7633C12.0787 22.0791 13.0298 22.0791 13.8973 21.7633C14.3628 21.5939 14.755 21.3189 15.1426 20.9858C15.5158 20.6651 15.9405 20.2405 16.4538 19.7271L19.7269 16.454C20.2403 15.9407 20.665 15.516 20.9856 15.1428C21.3187 14.7552 21.5937 14.363 21.7632 13.8975C22.0789 13.0299 22.0789 12.0789 21.7632 11.2114C21.5937 10.7459 21.3187 10.3536 20.9856 9.96601C20.6649 9.59279 20.2403 9.16811 19.7269 8.65474L14.7134 3.6412C14.2224 3.14967 13.8484 2.77527 13.396 2.51476C13.0137 2.29462 12.597 2.14048 12.1634 2.05881ZM10.47 4.0596C11.327 3.99368 11.5732 3.9828 11.7932 4.02424C12.0059 4.06432 12.2104 4.13995 12.398 4.24797C12.592 4.35969 12.7719 4.52819 13.3796 5.13595L18.2859 10.0422C18.8328 10.5891 19.2032 10.9605 19.4687 11.2694C19.7273 11.5704 19.8313 11.7512 19.8838 11.8954C20.0387 12.3211 20.0387 12.7877 19.8838 13.2134C19.8313 13.3577 19.7273 13.5384 19.4687 13.8394C19.2032 14.1484 18.8328 14.5197 18.2859 15.0667L15.0665 18.286C14.5195 18.833 14.1482 19.2034 13.8392 19.4688C13.5382 19.7275 13.3575 19.8315 13.2133 19.884C12.7876 20.0389 12.3209 20.0389 11.8952 19.884C11.751 19.8315 11.5702 19.7275 11.2692 19.4688C10.9603 19.2034 10.5889 18.833 10.042 18.286L5.13577 13.3798C4.52801 12.7721 4.35951 12.5922 4.24779 12.3982C4.13977 12.2106 4.06413 12.0061 4.02406 11.7934C3.98262 11.5734 3.99349 11.3271 4.05941 10.4702L4.27327 7.69003C4.33001 6.95249 4.36891 6.45583 4.42853 6.07163C4.48618 5.70012 4.55335 5.509 4.62926 5.37298C4.80338 5.06099 5.06081 4.80356 5.3728 4.62944C5.50882 4.55353 5.69994 4.48637 6.07145 4.42871C6.45564 4.36909 6.95231 4.33019 7.68984 4.27346L10.47 4.0596Z" fill="white"/>
</svg>
