<svg width="32" height="32" viewBox="0 0 32 32" fill="none" xmlns="http://www.w3.org/2000/svg">
<path fill-rule="evenodd" clip-rule="evenodd" d="M13.3333 10.6667C13.3333 6.98477 16.3181 4 20 4C23.6819 4 26.6667 6.98477 26.6667 10.6667C26.6667 14.3486 23.6819 17.3333 20 17.3333C16.3181 17.3333 13.3333 14.3486 13.3333 10.6667ZM20 6.66667C17.7909 6.66667 16 8.45753 16 10.6667C16 12.8758 17.7909 14.6667 20 14.6667C22.2091 14.6667 24 12.8758 24 10.6667C24 8.45753 22.2091 6.66667 20 6.66667Z" fill="#208AFF"/>
<path d="M11.6095 13.7239C12.1302 14.2446 12.1302 15.0888 11.6095 15.6095L6.74756 20.4714C5.96651 21.2525 4.70018 21.2525 3.91913 20.4714L1.72387 18.2761C1.20317 17.7554 1.20317 16.9112 1.72387 16.3905C2.24457 15.8698 3.08879 15.8698 3.60949 16.3905L5.33334 18.1144L9.72387 13.7239C10.2446 13.2032 11.0888 13.2032 11.6095 13.7239Z" fill="#208AFF"/>
<path fill-rule="evenodd" clip-rule="evenodd" d="M20 18.6667C17.3416 18.6667 14.7939 19.0056 12.8592 19.8647C10.8869 20.7406 9.33334 22.2856 9.33334 24.6667C9.33334 25.2889 9.447 25.9971 9.87031 26.6724C10.2936 27.3475 10.9438 27.8585 11.7838 28.2385C13.3958 28.9678 15.9786 29.3333 20 29.3333C24.0215 29.3333 26.6042 28.9678 28.2163 28.2385C29.0562 27.8585 29.7065 27.3475 30.1297 26.6724C30.553 25.9971 30.6667 25.2889 30.6667 24.6667C30.6667 22.2856 29.1131 20.7406 27.1408 19.8647C25.2061 19.0056 22.6585 18.6667 20 18.6667ZM12 24.6667C12 23.7144 12.5358 22.9261 13.9415 22.3019C15.3848 21.661 17.5038 21.3333 20 21.3333C22.4962 21.3333 24.6152 21.661 26.0586 22.3019C27.4642 22.9261 28 23.7144 28 24.6667C28 24.9649 27.947 25.1336 27.8703 25.256C27.7936 25.3784 27.6105 25.5857 27.1171 25.8089C26.0625 26.286 23.9786 26.6667 20 26.6667C16.0215 26.6667 13.9375 26.286 12.8829 25.8089C12.3895 25.5857 12.2065 25.3784 12.1297 25.256C12.053 25.1336 12 24.9649 12 24.6667Z" fill="#208AFF"/>
</svg>
