<svg width="28" height="29" viewBox="0 0 28 29" fill="none" xmlns="http://www.w3.org/2000/svg">
<path d="M14 12.6209C14.5523 12.6209 15 13.0687 15 13.6209V19.4543C15 20.0066 14.5523 20.4543 14 20.4543C13.4477 20.4543 13 20.0066 13 19.4543V13.6209C13 13.0687 13.4477 12.6209 14 12.6209Z" fill="#208AFF"/>
<path d="M14 8.95425C14.6444 8.95425 15.1667 9.47659 15.1667 10.1209C15.1667 10.7653 14.6444 11.2876 14 11.2876C13.3557 11.2876 12.8334 10.7653 12.8334 10.1209C12.8334 9.47659 13.3557 8.95425 14 8.95425Z" fill="#208AFF"/>
<path fill-rule="evenodd" clip-rule="evenodd" d="M2.5 14.7876C2.5 8.43632 7.64873 3.2876 14 3.2876C20.3513 3.2876 25.5 8.43632 25.5 14.7876C25.5 21.1389 20.3513 26.2876 14 26.2876C7.64873 26.2876 2.5 21.1389 2.5 14.7876ZM14 5.2876C8.75329 5.2876 4.5 9.54089 4.5 14.7876C4.5 20.0343 8.75329 24.2876 14 24.2876C19.2467 24.2876 23.5 20.0343 23.5 14.7876C23.5 9.54089 19.2467 5.2876 14 5.2876Z" fill="#208AFF"/>
</svg>
