<?xml version="1.0" encoding="utf-8"?>
<!-- Generator: Adobe Illustrator 27.9.3, SVG Export Plug-In . SVG Version: 9.03 Build 53313)  -->
<svg version="1.1" id="Camada_1" xmlns="http://www.w3.org/2000/svg" xmlns:xlink="http://www.w3.org/1999/xlink" x="0px" y="0px"
	 viewBox="0 0 217.1 15.8" style="enable-background:new 0 0 217.1 15.8;" xml:space="preserve">
<style type="text/css">
	.st0{opacity:0.5;}
	.st1{fill:#F0F7FF;}
	.st2{fill-rule:evenodd;clip-rule:evenodd;fill:#F0F7FF;}
</style>
<g>
	<g id="Layer_2">
		<g id="Camada_1_00000023979466963914628980000002977071531666950285_">
			<g class="st0">
				<g>
					<path class="st1" d="M181.4,10.8C181.4,10.8,181.3,10.7,181.4,10.8l-0.1-3.7c0-0.2,0-0.3,0.1-0.5s0.2-0.3,0.3-0.4
						s0.3-0.2,0.4-0.3c0.2-0.1,0.3-0.1,0.5-0.1h1.1c0.3,0,0.7,0.1,0.9,0.4c0.2,0.2,0.4,0.6,0.4,0.9v0.8c0,0.3-0.1,0.7-0.4,0.9
						c-0.2,0.2-0.6,0.4-0.9,0.4h-1.5c-0.1,0-0.1,0-0.1-0.1s0-0.1,0.1-0.1h1.5c0.3,0,0.6-0.1,0.8-0.3s0.3-0.5,0.3-0.8V7.1
						c0-0.3-0.1-0.6-0.3-0.8C184.2,6.1,184,6,183.7,6h-1.1c-0.1,0-0.3,0-0.4,0.1c-0.1,0.1-0.3,0.1-0.4,0.2c-0.1,0.1-0.2,0.2-0.2,0.4
						c-0.1,0.1-0.1,0.3-0.1,0.4v3.6C181.5,10.7,181.5,10.8,181.4,10.8L181.4,10.8z"/>
					<path class="st1" d="M186.1,9.2C186,9.2,186,9.1,186.1,9.2L186,6.4c0-0.1,0-0.2-0.1-0.3C185.8,6,185.7,6,185.6,6h-0.5
						C185,6,185,6,185,5.9s0-0.1,0.1-0.1h0.5c0.2,0,0.3,0.1,0.4,0.2s0.2,0.3,0.2,0.4L186.1,9.2C186.2,9.1,186.2,9.2,186.1,9.2
						L186.1,9.2z"/>
					<path class="st1" d="M186,5.5l-0.2-0.2l0,0c0,0,0,0,0-0.1c0,0,0,0,0-0.1l0,0l0.2-0.2l0,0c0,0,0,0,0.1,0s0,0,0.1,0l0,0l0.2,0.2
						l0,0c0,0,0,0,0,0.1c0,0,0,0,0,0.1l0,0l-0.2,0.2l0,0C186.1,5.5,186.1,5.5,186,5.5C186.1,5.5,186.1,5.5,186,5.5L186,5.5"/>
					<path class="st1" d="M189.4,7.4c-0.1,0-0.1,0-0.2,0c-0.1,0-0.1-0.1-0.1-0.1L188,6.2c-0.1-0.1-0.3-0.2-0.6-0.2H187
						c-0.1,0-0.1,0-0.1-0.1s0-0.1,0.1-0.1h0.5c0.3,0,0.5,0.1,0.7,0.3l1.1,1.1C189.3,7.2,189.4,7.2,189.4,7.4
						c0.1-0.1,0.1-0.1,0.2-0.1c0,0,0.1,0,0.1-0.1l1.1-1.1c0.1-0.1,0.2-0.2,0.3-0.2s0.2-0.1,0.4-0.1h0.4c0.1,0,0.1,0,0.1,0.1
						s0,0.1-0.1,0.1h-0.4c-0.1,0-0.2,0-0.3,0.1c-0.1,0-0.2,0.1-0.3,0.2l-1.1,1.1l-0.1,0.1C189.5,7.4,189.4,7.4,189.4,7.4L189.4,7.4z
						"/>
					<path class="st1" d="M187.4,9.1H187c-0.1,0-0.1,0-0.1-0.1s0-0.1,0.1-0.1h0.5c0.2,0,0.4-0.1,0.6-0.2l1.1-1.1l0.1-0.1
						c0.1,0,0.2,0,0.4,0c0.1,0,0.1,0.1,0.1,0.1l1.1,1.1c0.1,0.1,0.2,0.1,0.3,0.2c0.1,0,0.2,0.1,0.3,0.1h0.4c0.1,0,0.1,0,0.1,0.1
						s0,0.1-0.1,0.1h-0.4c-0.1,0-0.3,0-0.4-0.1C191,9,190.9,9,190.8,8.9l-1.1-1.1c0,0-0.1,0-0.1-0.1c-0.1,0-0.1,0-0.2,0
						c0,0-0.1,0-0.1,0.1l-1.1,1.1C187.9,9,187.7,9.2,187.4,9.1L187.4,9.1z"/>
					<path class="st1" d="M178.7,9.7c-0.1,0-0.2,0-0.3-0.1c-0.1,0-0.2-0.1-0.3-0.2l-0.9-0.9h-0.1H177l-0.9,0.9
						c-0.1,0.1-0.2,0.1-0.3,0.2c-0.1,0-0.2,0.1-0.3,0.1h-0.2l1.1,1.1c0.2,0.2,0.4,0.3,0.6,0.3s0.5-0.1,0.6-0.3L178.7,9.7L178.7,9.7
						L178.7,9.7z"/>
					<path class="st1" d="M175.5,6.6c0.1,0,0.2,0,0.3,0.1c0.1,0,0.2,0.1,0.3,0.2l0.9,0.9h0.1h0.1l0.9-0.9c0.1-0.1,0.2-0.1,0.3-0.2
						c0.1,0,0.2-0.1,0.3-0.1h0.1l-1.1-1.1c-0.1-0.1-0.2-0.1-0.3-0.2c-0.1,0-0.2-0.1-0.3-0.1s-0.2,0-0.3,0.1c-0.1,0-0.2,0.1-0.3,0.2
						l-1.1,1.1H175.5L175.5,6.6z"/>
					<path class="st1" d="M179.7,7.6L179,6.9l0,0h-0.3c-0.2,0-0.3,0.1-0.4,0.2L177.4,8l-0.1,0.1c-0.1,0-0.1,0-0.2,0
						c-0.1,0-0.2,0-0.3-0.1l-0.9-0.9c-0.1-0.1-0.3-0.2-0.4-0.2h-0.4l0,0l-0.7,0.7c-0.1,0.1-0.1,0.2-0.2,0.3c0,0.1-0.1,0.2-0.1,0.3
						c0,0.1,0,0.2,0.1,0.3c0,0.1,0.1,0.2,0.2,0.3l0.7,0.7l0,0h0.4c0.2,0,0.3-0.1,0.4-0.2l0.9-0.9c0.1-0.1,0.2-0.1,0.3-0.1
						s0.2,0,0.3,0.1l0.9,0.9c0.1,0.1,0.3,0.2,0.4,0.2h0.3l0,0l0.7-0.7c0.2-0.2,0.3-0.4,0.3-0.6C180,8,179.9,7.7,179.7,7.6L179.7,7.6
						z"/>
					<path class="st1" d="M182.5,10.4L182.5,10.4L182.5,10.4c-0.1-0.1-0.1-0.1-0.1-0.1s0,0-0.1,0s-0.1,0-0.2,0l0,0l0,0v0.4l0,0v-0.1
						h0.1l0,0l0,0c0,0,0,0,0.1,0C182.3,10.6,182.3,10.6,182.5,10.4L182.5,10.4C182.5,10.5,182.5,10.5,182.5,10.4
						C182.5,10.5,182.5,10.4,182.5,10.4z M182.3,10.6h-0.1v-0.2c0.1,0,0.1,0,0.2,0h0.1c0,0,0,0,0,0.1
						C182.5,10.6,182.4,10.6,182.3,10.6z"/>
					<path class="st1" d="M182.9,10.4L182.9,10.4c-0.1-0.1-0.1-0.1-0.2-0.1c-0.1,0-0.1,0-0.1,0v0.1v0.1c0,0,0,0,0.1,0.1h0.1
						c0.1,0,0.1,0,0.1,0C182.9,10.6,182.9,10.5,182.9,10.4C182.9,10.5,182.9,10.5,182.9,10.4z M182.9,10.6h-0.1h-0.1c0,0,0,0,0-0.1
						c0,0,0,0,0-0.1v-0.1l0,0c0,0,0,0,0-0.1h0.1h0.1c0,0,0,0,0,0.1l0,0c0,0,0,0,0,0.1C183,10.5,183,10.5,182.9,10.6L182.9,10.6
						L182.9,10.6C183,10.6,182.9,10.6,182.9,10.6"/>
					<path class="st1" d="M183.4,10.7l-0.1-0.3l0,0l-0.1,0.3l0,0l-0.1-0.3l0,0l0.1,0.3l0,0l0.1-0.3l0,0L183.4,10.7L183.4,10.7
						l0.1-0.3l0,0L183.4,10.7L183.4,10.7L183.4,10.7z"/>
					<path class="st1" d="M183.7,10.5h0.3c0-0.1,0-0.1-0.1-0.1l0,0h-0.1h-0.1l0,0C183.7,10.4,183.7,10.4,183.7,10.5
						C183.6,10.5,183.6,10.5,183.7,10.5C183.6,10.5,183.6,10.6,183.7,10.5c0,0.1,0,0.1,0,0.1l0,0l0,0c0,0,0,0,0.1,0s0.1,0,0.2,0l0,0
						c-0.1,0-0.1,0-0.2,0C183.7,10.6,183.7,10.6,183.7,10.5z M183.7,10.4h0.1c0.1,0,0.1,0,0.1,0.1L183.7,10.4L183.7,10.4z"/>
					<path class="st1" d="M184.1,10.7v-0.3l0,0l0,0c0.1,0,0.1,0,0.2,0l0,0l0,0l0,0c-0.1,0-0.1,0-0.1,0L184.1,10.7L184.1,10.7
						L184.1,10.7z"/>
					<path class="st1" d="M184.4,10.5h0.3c0-0.1,0-0.1-0.1-0.1h-0.1h-0.1C184.4,10.4,184.4,10.4,184.4,10.5
						C184.3,10.4,184.3,10.5,184.4,10.5C184.3,10.5,184.3,10.5,184.4,10.5c0,0.1,0,0.1,0,0.1h0.1c0.1,0,0.1,0,0.2,0l0,0
						c-0.1,0-0.1,0-0.2,0C184.4,10.6,184.4,10.6,184.4,10.5z M184.5,10.4c0.1,0,0.1,0,0.1,0s0,0,0,0.1h-0.3
						C184.4,10.4,184.4,10.4,184.5,10.4z"/>
					<path class="st1" d="M185.1,10.2v0.1H185h-0.1c0,0,0,0-0.1,0.1c0,0,0,0,0,0.1c0,0,0,0,0,0.1c0,0,0,0,0,0.1h0.1
						c0.1,0,0.1,0,0.2,0l0,0l0,0L185.1,10.2L185.1,10.2z M185.1,10.6c-0.1,0-0.1,0-0.2,0c-0.1,0-0.1,0-0.1-0.1s0.1-0.1,0.2-0.1h0.1
						V10.6z"/>
					<path class="st1" d="M185.7,10.4c-0.1,0-0.1,0-0.2,0l0,0v0.2l0,0h0.1c0.1,0,0.1,0,0.1,0l0,0C185.7,10.6,185.7,10.6,185.7,10.4
						C185.8,10.4,185.8,10.4,185.7,10.4z M185.8,10.6h-0.1h-0.1l0,0l0,0l0,0l0,0v-0.4l0,0v0.1l0,0c0.1,0,0.1,0,0.2,0h0.1
						c0,0,0,0,0,0.1l0,0C185.9,10.4,185.9,10.4,185.8,10.6C185.9,10.5,185.9,10.5,185.8,10.6L185.8,10.6"/>
					<path class="st1" d="M185.9,10.8L185.9,10.8C185.9,10.7,185.9,10.7,185.9,10.8c0.1,0,0.1,0,0.1-0.1l0,0l0,0l-0.2-0.3l0,0
						l0.1,0.3l0,0l0.1-0.3l0,0L185.9,10.8C186,10.8,186,10.8,185.9,10.8L185.9,10.8z"/>
					<path class="st1" d="M186.9,10.4L186.9,10.4L186.9,10.4c0.1-0.1,0.1-0.1,0.1-0.1l0,0c0,0-0.1,0-0.2,0h-0.2v0.4h0.2
						c0.1,0,0.2,0,0.2,0l0,0l0,0l0,0C187,10.6,187,10.6,186.9,10.4C187,10.5,186.9,10.5,186.9,10.4z M186.7,10.3L186.7,10.3
						C186.8,10.3,186.8,10.3,186.7,10.3c0.1,0,0.1,0,0.1,0.1l0,0c0,0,0,0.1-0.1,0.1h-0.1L186.7,10.3L186.7,10.3z M186.8,10.6h-0.1
						v-0.1h0.1C186.8,10.5,186.8,10.5,186.8,10.6c0.1-0.1,0.1-0.1,0.1-0.1C186.9,10.5,186.9,10.6,186.8,10.6L186.8,10.6z"/>
					<path class="st1" d="M187.4,10.4L187.4,10.4L187.4,10.4c-0.1-0.1-0.1-0.1-0.2-0.1h-0.1l0,0v0.1h0.1
						C187.3,10.4,187.3,10.4,187.4,10.4C187.3,10.5,187.3,10.5,187.4,10.4l-0.2,0.1h-0.1l0,0l0,0c0,0,0,0,0,0.1l0,0l0,0h0.1
						c0.1,0,0.1,0,0.2,0l0,0h0.1L187.4,10.4C187.4,10.5,187.4,10.4,187.4,10.4z M187.2,10.5h0.1v0.1
						C187.3,10.6,187.3,10.6,187.2,10.5C187.2,10.6,187.1,10.6,187.2,10.5C187.1,10.5,187.2,10.5,187.2,10.5z"/>
					<path class="st1" d="M187.8,10.7v-0.2c0-0.1,0-0.1-0.1-0.1h-0.1v0.2h-0.1v-0.3h0.1l0,0c0.1,0,0.1,0,0.2,0h0.1l0,0
						c0,0,0,0,0,0.1L187.8,10.7L187.8,10.7L187.8,10.7z"/>
					<path class="st1" d="M188.2,10.7h-0.1c0,0,0,0,0-0.1c0,0,0,0,0-0.1v-0.1c0,0,0,0,0-0.1h0.1h0.1v0.1h-0.1c-0.1,0-0.1,0-0.1,0.1
						C188.1,10.6,188.1,10.6,188.2,10.7c0.1-0.1,0.1-0.1,0.2-0.1v0.1C188.3,10.7,188.2,10.7,188.2,10.7L188.2,10.7z"/>
					<path class="st1" d="M188.4,10.4L188.4,10.4c0,0,0.1,0,0.2,0c0.1,0,0.1,0,0.2,0l0,0c0,0,0,0,0,0.1c0,0,0,0,0,0.1v0.1
						c0,0,0,0,0,0.1c0,0-0.1,0-0.2,0c-0.1,0-0.1,0-0.2,0c0,0,0,0,0-0.1c0,0,0,0,0-0.1S188.4,10.4,188.4,10.4L188.4,10.4"/>
					<path class="st1" d="M189.3,10.7c-0.1,0-0.1,0-0.2,0c-0.1,0-0.1-0.1-0.1-0.2v-0.1c0,0,0-0.1,0.1-0.1s0.1,0,0.2,0h0.1v0.1h-0.1
						c-0.1,0-0.2,0-0.2,0.1S189.2,10.6,189.3,10.7c0.1-0.1,0.1-0.1,0.2-0.1v0.1C189.5,10.7,189.4,10.7,189.3,10.7L189.3,10.7z"/>
					<path class="st1" d="M190,10.5v-0.1l0,0l0,0h-0.1h-0.1c0,0,0,0,0,0.1v0.1c0,0,0,0,0,0.1c0,0,0,0,0,0.1h0.1l0,0l0,0
						c0.1,0,0.1,0,0.2,0l0,0L190,10.5c-0.1,0.1-0.1,0.1-0.2,0.1c-0.1,0-0.1,0-0.1-0.1l0,0H190z M189.7,10.5L189.7,10.5
						C189.7,10.5,189.7,10.4,189.7,10.5C189.7,10.4,189.7,10.4,189.7,10.5c0-0.1,0.1-0.1,0.1-0.1h0.1c0,0,0,0,0,0.1l0,0H189.7z"/>
					<path class="st1" d="M190.4,10.7v-0.2c0-0.1,0-0.1-0.1-0.1h-0.1v0.2h-0.1v-0.3h0.1l0,0c0.1,0,0.1,0,0.2,0h0.1l0,0
						c0,0,0,0,0,0.1L190.4,10.7L190.4,10.7L190.4,10.7z"/>
					<path class="st1" d="M190.7,10.7L190.7,10.7C190.6,10.7,190.6,10.6,190.7,10.7c-0.1-0.1-0.1-0.1-0.1-0.1v-0.1h-0.1v-0.1h0.1
						v-0.1h0.1v0.1h0.1v0.1h-0.1v0.1C190.7,10.5,190.7,10.6,190.7,10.7C190.7,10.6,190.7,10.6,190.7,10.7
						C190.7,10.6,190.7,10.6,190.7,10.7C190.8,10.6,190.8,10.6,190.7,10.7L190.7,10.7C190.8,10.7,190.7,10.7,190.7,10.7"/>
					<path class="st1" d="M190.9,10.7v-0.3h0.1l0,0c0.1,0,0.1,0,0.2,0l0,0v0.1l0,0h-0.1L190.9,10.7C191,10.7,190.9,10.7,190.9,10.7z
						"/>
					<path class="st1" d="M191.5,10.4L191.5,10.4c-0.1-0.1-0.1-0.1-0.2-0.1h-0.1l0,0v0.1h0.1C191.4,10.4,191.4,10.4,191.5,10.4
						L191.5,10.4l-0.2,0.1h-0.1l0,0l0,0l0,0c0,0,0,0,0,0.1l0,0l0,0h0.1c0.1,0,0.1,0,0.2,0l0,0h0.1L191.5,10.4
						C191.5,10.5,191.5,10.4,191.5,10.4z M191.3,10.5h0.1v0.1C191.4,10.6,191.4,10.6,191.3,10.5C191.3,10.6,191.2,10.6,191.3,10.5
						C191.2,10.5,191.3,10.5,191.3,10.5z"/>
					<path class="st1" d="M191.6,10.2L191.6,10.2l0.1,0.5h-0.1V10.2z"/>
					<path class="st2" d="M159.5,5.9L159.5,5.9C159.5,5.8,159.5,5.8,159.5,5.9c-0.1-0.1-0.2-0.2-0.2-0.2c-0.1-0.1-0.2-0.1-0.3-0.1
						c-0.2-0.1-0.4-0.1-0.6-0.1h-1.7v5.2h0.7V8.5h1.1c0.1,0,0.2,0,0.3,0c0.3-0.1,0.6-0.2,0.8-0.4l0.1-0.1c0.1-0.1,0.2-0.3,0.3-0.5
						c0-0.1,0.1-0.2,0.1-0.3c0-0.1,0-0.2,0-0.4C159.9,6.5,159.8,6.1,159.5,5.9z M159.3,7.1c0,0.2-0.1,0.3-0.2,0.4
						c-0.2,0.2-0.4,0.3-0.6,0.3h-1.1l0,0V6h1.1c0.1,0,0.2,0,0.3,0.1c0.1,0,0.2,0.1,0.3,0.2l0,0c0.2,0.2,0.3,0.4,0.3,0.7
						C159.3,7,159.3,7.1,159.3,7.1z M162.6,7.3c-0.3-0.3-0.7-0.4-1.1-0.4c-0.5,0-0.8,0.1-1.1,0.4l-0.1,0.1c0,0-0.1,0.1-0.1,0.2l0,0
						l0,0l0.6,0.4l0,0c0.1-0.1,0.1-0.1,0.2-0.2c0.1-0.1,0.2-0.2,0.3-0.2s0.2-0.1,0.4-0.1c0.1,0,0.2,0,0.3,0.1c0.1,0,0.1,0,0.2,0.1
						l0.1,0.1c0.2,0.1,0.3,0.4,0.3,0.6v0.2c-0.3-0.1-0.6-0.2-1-0.2c-0.5,0-0.8,0.1-1.1,0.3s-0.4,0.5-0.4,0.9c0,0.3,0.1,0.7,0.4,0.9
						l0,0c0.3,0.2,0.6,0.3,1,0.3c0.3,0,0.6-0.1,0.9-0.3c0.1-0.1,0.1-0.2,0.2-0.3l0,0v0.5h0.6V8.4C163,7.9,162.9,7.6,162.6,7.3z
						 M162.2,9.6c0,0.1-0.1,0.1-0.1,0.2s-0.1,0.1-0.2,0.1c-0.1,0.1-0.2,0.1-0.3,0.1s-0.2,0.1-0.3,0.1c-0.2,0-0.4-0.1-0.5-0.2
						c-0.1-0.1-0.2-0.3-0.2-0.4c0-0.1,0-0.1,0-0.1c0-0.1,0.1-0.2,0.1-0.2l0.1-0.1l0,0C160.9,9,161,9,161.1,9s0.1,0,0.2,0
						c0.1,0,0.1,0,0.2,0c0.4,0,0.7,0.1,0.9,0.2c0,0.1,0,0.1,0,0.2C162.4,9.4,162.3,9.5,162.2,9.6z M165.9,7L165.9,7L165.9,7l-1,2.5
						l0,0l-1-2.5l0,0h-0.7l0,0l1.4,3.3l-0.8,1.8h0.7l2.2-5.1l0,0C166.7,7,165.9,7,165.9,7z"/>
					<path class="st1" d="M155,7.4h-2.8v1.1h1.6c-0.1,0.4-0.3,0.7-0.6,0.9l0,0c-0.3,0.2-0.6,0.3-1,0.3c-0.8,0-1.4-0.5-1.6-1.2l0,0
						c-0.1-0.4-0.1-0.8,0-1.1l0,0c0.2-0.7,0.9-1.2,1.6-1.2c0.4,0,0.8,0.2,1.1,0.4l0.8-0.9c-0.5-0.5-1.2-0.8-2-0.8
						c-1.1,0-2.1,0.6-2.6,1.6c-0.4,0.8-0.4,1.8,0,2.7l0,0c0.5,1,1.5,1.6,2.6,1.6c0.8,0,1.5-0.3,1.9-0.7c0.6-0.5,0.9-1.3,0.9-2.2
						C155,7.8,155,7.6,155,7.4L155,7.4z"/>
					<path class="st2" d="M129.3,10.5l-0.1-0.1c0,0-0.1-0.1-0.2-0.1c-0.1-0.1-0.3-0.1-0.5-0.1l0,0h-1.1c-0.1,0-0.1,0.1-0.1,0.1
						l-0.4,2.8l0,0c0,0,0,0.1,0.1,0.1h0.5c0.1,0,0.1-0.1,0.1-0.1l0.1-0.7c0,0,0-0.1,0.1-0.1h0.1h0.3c0.7,0,1.1-0.3,1.2-1
						C129.5,10.9,129.5,10.7,129.3,10.5z M128.7,11.2L128.7,11.2c0,0.2-0.1,0.2-0.2,0.3c-0.1,0.1-0.3,0.1-0.5,0.1h-0.2l0.1-0.7l0,0
						l0,0l0,0c0,0,0,0,0.1,0h0.1c0.2,0,0.4,0,0.5,0.1l0,0C128.7,11,128.7,11.1,128.7,11.2z M131.8,11.3L131.8,11.3
						C131.8,11.2,131.8,11.2,131.8,11.3L131.8,11.3l-0.6-0.1c0,0-0.1,0-0.1,0.1v0.1l0,0l0,0c-0.1-0.2-0.4-0.2-0.6-0.2
						c-0.6,0-1.1,0.4-1.2,1c0,0.1,0,0.1,0,0.2c0,0.1,0,0.1,0,0.2c0,0.2,0.1,0.3,0.2,0.4c0.2,0.2,0.4,0.3,0.7,0.3
						c0.5,0,0.7-0.3,0.7-0.3l0,0v0.1l0,0l0,0l0,0c0,0,0,0,0.1,0h0.5c0.1,0,0.1-0.1,0.1-0.1L131.8,11.3
						C131.9,11.3,131.9,11.3,131.8,11.3z M130.5,12.7c-0.1,0-0.3,0-0.3-0.1c-0.1-0.1-0.1-0.2-0.1-0.4c0-0.1,0-0.1,0.1-0.2
						c0-0.1,0.1-0.1,0.1-0.2c0.1-0.1,0.2-0.1,0.4-0.1c0.1,0,0.3,0,0.3,0.1c0.1,0.1,0.1,0.2,0.1,0.4l0,0
						C131,12.5,130.8,12.7,130.5,12.7z M134.6,11.3C134.6,11.2,134.6,11.2,134.6,11.3H134l0,0c0,0-0.1,0-0.1,0.1l-0.7,1.1l-0.3-1
						l0,0l0,0c0,0,0,0-0.1,0h-0.5c-0.1,0-0.1,0.1-0.1,0.1l0,0l0.6,1.7l-0.5,0.8v0.1l0,0c0,0,0,0,0.1,0h0.5c0,0,0.1,0,0.1-0.1
						L134.6,11.3L134.6,11.3L134.6,11.3z"/>
					<path class="st2" d="M140.7,10.2L140.7,10.2L140.7,10.2L140.7,10.2h-0.6c0,0,0,0-0.1,0l0,0l0,0l0,0l-0.4,2.8l0,0v0.1l0,0l0,0
						h0.4c0.1,0,0.1-0.1,0.1-0.1L140.7,10.2C140.8,10.3,140.7,10.3,140.7,10.2z M137.1,10.6C137.1,10.6,137.1,10.5,137.1,10.6
						c-0.1-0.1-0.1-0.2-0.2-0.2c0,0-0.1,0-0.1-0.1c-0.1-0.1-0.3-0.1-0.5-0.1l0,0h-1.1c-0.1,0-0.1,0.1-0.1,0.1l-0.4,2.8l0,0
						c0,0,0,0.1,0.1,0.1h0.6h0.1c0,0,0,0,0-0.1l0.1-0.8c0-0.1,0.1-0.1,0.1-0.1h0.3c0.7,0,1.1-0.3,1.2-1
						C137.2,10.9,137.2,10.7,137.1,10.6z M136.4,11.2L136.4,11.2c0,0.2-0.1,0.2-0.2,0.3c-0.1,0.1-0.3,0.1-0.5,0.1h-0.2l0.1-0.7l0,0
						l0,0l0,0c0,0,0,0,0.1,0h0.1c0.2,0,0.4,0,0.5,0.1l0,0C136.4,11,136.4,11.1,136.4,11.2z M139.5,11.3L139.5,11.3
						C139.5,11.2,139.5,11.2,139.5,11.3L139.5,11.3l-0.6-0.1c0,0-0.1,0-0.1,0.1v0.1l0,0l0,0c-0.1-0.2-0.4-0.2-0.6-0.2
						c-0.6,0-1.1,0.4-1.2,1c0,0.1,0,0.1,0,0.2c0,0.1,0,0.1,0,0.2c0,0.2,0.1,0.3,0.2,0.4c0.2,0.2,0.4,0.3,0.7,0.3
						c0.5,0,0.7-0.3,0.7-0.3l0,0v0.1l0,0l0,0l0,0c0,0,0,0,0.1,0h0.5c0.1,0,0.1-0.1,0.1-0.1L139.5,11.3L139.5,11.3z M138.2,12.7
						c-0.1,0-0.1,0-0.2,0h-0.1c0,0,0,0-0.1-0.1l-0.1-0.1c0,0,0,0,0-0.1s0-0.1,0-0.2c0-0.1,0.1-0.2,0.1-0.3c0.1-0.1,0.3-0.2,0.5-0.2
						c0.1,0,0.3,0,0.3,0.1c0.1,0.1,0.1,0.2,0.1,0.4l0,0c0,0.1-0.1,0.2-0.1,0.3C138.5,12.6,138.3,12.7,138.2,12.7z"/>
					<path class="st1" d="M136.9,5.4c-0.1,0.3-0.2,0.6-0.3,0.8c-0.1,0.2-0.3,0.4-0.5,0.5s-0.4,0.2-0.6,0.3c-0.2,0.1-0.5,0.1-0.8,0.1
						h-0.2c-0.1,0-0.3,0-0.4,0.1c-0.1,0.1-0.2,0.2-0.2,0.3v0.1l-0.2,1.5v0.1l0,0l0,0h-1.1l0,0l0.1-0.8H131l1-6.2l0,0c0,0,0,0,0.1,0
						h2.4c0.8,0,1.3,0.2,1.6,0.5c0.1,0.2,0.2,0.3,0.3,0.5c0,0.2,0,0.4,0,0.6l0,0c0,0,0,0-0.1,0h-0.1c0,0-0.1,0-0.2,0
						c-0.2,0-0.4,0-0.6,0h-1.9h-0.1c0,0,0,0-0.1,0c0,0,0,0-0.1,0.1c0,0,0,0.1-0.1,0.1l-0.4,2.5l0,0l0,0c0,0,0-0.1,0.1-0.1
						c0.1-0.1,0.1-0.1,0.2-0.1h0.7c0.9,0,1.6-0.2,2.1-0.8c0.3-0.3,0.5-0.7,0.6-1.2c0.1,0,0.1,0.1,0.2,0.2c0.1,0.1,0.2,0.3,0.2,0.5
						C136.9,4.9,136.9,5.2,136.9,5.4z"/>
					<path class="st1" d="M137.1,5.5c-0.3,1.4-1.2,1.9-2.4,1.9h-0.2c-0.1,0-0.3,0.1-0.3,0.3v0.1L134,9.2v0.1c0,0.1-0.1,0.3-0.3,0.3
						h-1.2c0,0,0,0-0.1,0c0,0-0.1,0-0.1-0.1V9.4l0.1-0.6V8.5l0.3-2l0,0l0,0c0,0,0-0.1,0.1-0.1c0.1-0.1,0.1-0.1,0.2-0.1h0.7
						c0.9,0,1.6-0.2,2.1-0.8c0.3-0.3,0.5-0.7,0.6-1.2V4.2V4.1l0,0c0.1,0.1,0.2,0.2,0.3,0.3c0.1,0.1,0.2,0.3,0.2,0.4
						C137.2,4.7,137.2,5.1,137.1,5.5z"/>
					<path class="st1" d="M132.8,6.3c0,0,0-0.1,0.1-0.1C132.8,6.2,132.8,6.2,132.8,6.3z"/>
					<path class="st1" d="M132.7,6.3C132.7,6.3,132.8,6.3,132.7,6.3L132.7,6.3L132.7,6.3z"/>
					<path class="st1" d="M133.8,6.1c0.9,0,1.6-0.2,2.1-0.8C135.4,5.9,134.6,6.1,133.8,6.1h-0.7c-0.1,0-0.2,0-0.2,0.1
						c0.1-0.1,0.1-0.1,0.2-0.1H133.8z"/>
					<path class="st1" d="M136.1,3.6h0.1l0,0C136.2,3.6,136.1,3.6,136.1,3.6s-0.1,0-0.2,0c-0.2,0-0.4,0-0.6,0h-1.9h-0.1
						c0,0,0,0-0.1,0c0,0,0,0,0.1,0h0.1h1.9c0.2,0,0.4,0,0.6,0C136,3.6,136,3.6,136.1,3.6z"/>
					<path class="st1" d="M136.5,3.8L136.5,3.8V4c0,0,0,0-0.1,0l-0.1-0.1V3.7c0,0,0,0,0-0.1C136.4,3.7,136.5,3.7,136.5,3.8z"/>
					<path class="st1" d="M136.5,3.8L136.5,3.8c-0.1,0-0.2-0.1-0.2-0.1l0,0c0,0,0,0-0.1,0h-0.1c0,0-0.1,0-0.2,0c-0.2,0-0.4,0-0.6,0
						h-1.9h-0.1c0,0,0,0-0.1,0c0,0,0,0-0.1,0.1c0,0,0,0.1-0.1,0.1l0,0l-0.4,2.5v0.1l-0.3,2v0.3h-1.5c-0.1,0-0.1,0-0.1-0.1l-0.1-0.1
						l0,0l1-6.3c0-0.1,0.1-0.1,0.1-0.2c0,0,0.1,0,0.1-0.1h0.1h2.4c0.4,0,0.8,0,1.1,0.1c0.2,0,0.3,0.1,0.4,0.2l0,0
						c0.1,0.1,0.2,0.2,0.3,0.3C136.5,2.8,136.6,3.2,136.5,3.8z"/>
					<path class="st2" d="M82.5,11.5c-0.8,0.7-1.9,1.1-3.1,1.1c-2.6,0-4.7-2.1-4.7-4.8S76.8,3,79.4,3c1.2,0,2.2,0.4,3.1,1.1
						c-1,0.9-1.7,2.2-1.7,3.6C80.8,9.4,81.4,10.7,82.5,11.5z"/>
					<path class="st2" d="M90.3,7.9c0,2.6-2.1,4.8-4.7,4.8c-0.1,0-0.3,0-0.4,0c-0.3,0-0.5-0.1-0.8-0.1c-0.2,0-0.3-0.1-0.5-0.1
						c-0.1,0-0.3-0.1-0.4-0.2c-0.2-0.1-0.5-0.3-0.7-0.4c-0.1-0.1-0.2-0.2-0.3-0.3c1-0.9,1.7-2.2,1.7-3.6c0-1.5-0.6-2.8-1.7-3.6
						c0.4-0.4,0.9-0.6,1.4-0.8s1.1-0.3,1.7-0.3C88.1,3.1,90.3,5.3,90.3,7.9z"/>
					<path class="st2" d="M90.3,7.9c0,2.6-2.1,4.8-4.7,4.8c-0.1,0-0.3,0-0.4,0c-0.3,0-0.5-0.1-0.8-0.1c-0.2,0-0.3-0.1-0.5-0.1
						c-0.1,0-0.3-0.1-0.4-0.2c-0.2-0.1-0.5-0.3-0.7-0.4c-0.1-0.1-0.2-0.2-0.3-0.3c1-0.9,1.7-2.2,1.7-3.6c0-1.5-0.6-2.8-1.7-3.6
						c0.4-0.4,0.9-0.6,1.4-0.8s1.1-0.3,1.7-0.3C88.1,3.1,90.3,5.3,90.3,7.9z"/>
					<path class="st2" d="M102,6.9l-0.6,1.4h1.2L102,6.9z M113.2,7H111v0.7l0,0h1.9v0.7H111v0.7h2.2l1-1.1l0,0L113.2,7z M113.2,7
						H111v0.7l0,0h1.9v0.7H111v0.7h2.2l1-1.1l0,0L113.2,7z M102,6.9l-0.6,1.4h1.2L102,6.9z M118.6,5.5h-3.1l-0.7,0.8l-0.7-0.8h-6.8
						l-0.6,1.3l-0.6-1.3h-2.7v0.6l-0.3-0.6h-2.3l-2.3,5h2.7l0.3-0.8h0.8l0.3,0.8h3V9.9l0.3,0.6h1.5l0.3-0.6v0.6h6.2l0.8-0.8l0.7,0.8
						h3.2L116.3,8L118.6,5.5z M108.4,9.9V7l-1.3,2.8h-0.8L105.1,7l0,0v2.8h-1.8L102.9,9H101l-0.3,0.8h-1l1.6-3.6h1.3l1.5,3.4V6.3
						h1.4l1.2,2.4l1.1-2.4h1.4v3.6C109.2,9.9,108.4,9.9,108.4,9.9z M115.8,9.9l-1.1-1.2l0,0l-1.1,1.2h-3.5V6.3h3.6l0,0l1.1,1.2
						l1.1-1.2h1.1l0,0l-1.7,1.8l0,0l1.7,1.8C117,9.9,115.8,9.9,115.8,9.9z M111,7v0.7l0,0h1.9v0.7H111v0.7h2.2l1-1.1l0,0l-1-1.1H111
						V7z M101.4,8.3h1.2L102,6.9L101.4,8.3z M113.2,7H111v0.7l0,0h1.9v0.7H111v0.7h2.2l1-1.1l0,0L113.2,7z M113.2,7H111v0.7l0,0h1.9
						v0.7H111v0.7h2.2l1-1.1l0,0L113.2,7z M102,6.9l-0.6,1.4h1.2L102,6.9z M102,6.9l-0.6,1.4h1.2L102,6.9z"/>
					<path class="st2" d="M55.2,5.7l-1.5,3.6l0,0l-0.6-3V6.2C53,6,52.8,5.8,52.5,5.8h-2.4V6c0.5,0.1,0.9,0.2,1.3,0.4
						c0,0,0.1,0,0.1,0.1l0.1,0.1l0,0c0.1,0.1,0.1,0.2,0.1,0.3l1.1,4.2l0,0h1.5l0,0l2.2-5.2h-1.3V5.7z M57.2,5.7L56.1,11h1.4l1.1-5.3
						H57.2z M61,6.7c0.5,0,0.9,0,1.3,0.2l0.2-1.1c-0.4-0.2-0.9-0.2-1.3-0.2c-1.3,0-2.3,0.7-2.3,1.7c0,0.8,0.7,1.2,1.2,1.4
						s0.7,0.4,0.7,0.6c0,0.4-0.4,0.5-0.8,0.5c-0.5,0-1-0.1-1.4-0.3l-0.2,1.1c0.5,0.2,1,0.3,1.5,0.3c1.5,0,2.4-0.7,2.4-1.8
						c0-1.4-1.9-1.5-1.9-2.1l0,0C60.4,6.8,60.7,6.7,61,6.7z M66.1,5.7h-1.2c-0.2,0-0.4,0.1-0.5,0.2c0,0-0.1,0.1-0.1,0.2l-2,4.9h1.4
						l0.3-0.8h1.8L66,11h1.3L66.1,5.7z M64.3,9.1l0.7-2l0,0l0.4,2H64.3z"/>
					<g>
						<path class="st1" d="M25.3,3.1v5.1h0.2V3.1H25.3z M25.7,3.1v5.1h0.2V3.1H25.7z M26.9,3.1v5.1H27V3.1H26.9z M30.6,3.1v5.1h0.2
							V3.1H30.6z M31.9,3.1v5.1h0.2V3.1H31.9z M33.1,3.1v5.1h0.2V3.1H33.1z M33.4,3.1v5.1h0.2V3.1H33.4z M33.7,3.1v5.1h0.2V3.1H33.7
							z M34.1,3.1v5.1h0.2V3.1H34.1z M34.4,3.1v5.1h0.2V3.1H34.4z M35.4,3.1v5.1h0.2V3.1H35.4z M37.8,3.1v5.1H38V3.1H37.8z
							 M40.3,3.1v5.1h0.2V3.1H40.3z M41,3.1v5.1h0.2V3.1H41z M41.5,3.1v5.1h0.2V3.1H41.5z M41.9,3.1v5.1H42L41.9,3.1L41.9,3.1z
							 M28.1,3.1v5.1h0.2V3.1H28.1z M26.2,3.1v5.1h0.3V3.1H26.2z M28.5,3.1v5.1h0.3V3.1H28.5z M30.1,3.1v5.1h0.3V3.1H30.1z
							 M30.9,3.1v5.1h0.3V3.1H30.9z M32.2,3.1v5.1h0.3V3.1H32.2z M35.9,3.1v5.1h0.5V3.1H35.9z M36.6,3.1v5.1H37V3.1H36.6z M37.3,3.1
							v5.1h0.3V3.1H37.3z M38.3,3.1v5.1h0.6V3.1H38.3z M39.5,3.1v5.1H40V3.1H39.5z M27.2,3.1v5.1h0.7V3.1H27.2z M29,3.1v5.1h0.5V3.1
							H29z"/>
						<path class="st1" d="M27.6,11.5C27.6,11.5,27.6,11.4,27.6,11.5c-0.2-0.2-0.3-0.2-0.4-0.3c0.1,0,0.1-0.1,0.2-0.1
							s0.1-0.1,0.1-0.1c0.1-0.1,0.1-0.2,0.1-0.4c0-0.1,0-0.3-0.1-0.4c0-0.1-0.1-0.1-0.1-0.2c0,0-0.1,0-0.1-0.1c0,0-0.1,0-0.1-0.1
							c-0.2-0.1-0.4-0.1-0.5-0.1h-1.1v2.9h1.1c0.2,0,0.3,0,0.5,0c0.1,0,0.2-0.1,0.3-0.1c0.1-0.1,0.2-0.2,0.2-0.3
							c0.1-0.1,0.1-0.3,0.1-0.4C27.8,11.8,27.7,11.6,27.6,11.5z M27.2,10.9C27.1,11,27,11,27,11c-0.1,0-0.2,0-0.4,0H26l0,0l0,0l0,0
							v-0.9h0.6c0.1,0,0.3,0,0.4,0s0.2,0.1,0.2,0.2c0,0.1,0.1,0.2,0.1,0.3C27.3,10.7,27.2,10.8,27.2,10.9z M25.9,11.4h0.7
							c0.1,0,0.3,0,0.4,0c0,0,0.1,0,0.1,0.1c0,0,0,0,0.1,0c0,0,0,0,0,0.1l0.1,0.1v0.1c0,0.1,0,0.2-0.1,0.2c0,0.1-0.1,0.1-0.1,0.2
							c-0.1,0-0.1,0.1-0.2,0.1s-0.2,0-0.3,0h-0.7V11.4z M31,10.5L31,10.5c0-0.1-0.1-0.1-0.1-0.2c0-0.1-0.1-0.1-0.1-0.1
							c-0.1-0.1-0.2-0.2-0.3-0.2c-0.2-0.1-0.5-0.2-0.7-0.2s-0.4,0-0.6,0.1s-0.3,0.2-0.5,0.3l0,0c-0.3,0.3-0.4,0.7-0.4,1.1l0,0
							c0,0.3,0.1,0.5,0.2,0.7c0.1,0.1,0.1,0.2,0.2,0.3s0.2,0.2,0.3,0.2c0.2,0.1,0.5,0.2,0.7,0.2h0.1h0.1c0.1,0,0.2,0,0.4-0.1
							c0.1,0,0.1-0.1,0.2-0.1s0.1-0.1,0.2-0.1s0.1-0.1,0.1-0.1c0.1-0.1,0.2-0.2,0.2-0.3c0.1-0.2,0.2-0.5,0.2-0.8
							C31.1,11,31.1,10.8,31,10.5z M30.4,12.2c-0.1,0.1-0.2,0.2-0.3,0.2c-0.1,0.1-0.3,0.1-0.4,0.1s-0.3,0-0.4-0.1s-0.2-0.1-0.3-0.2
							c-0.2-0.2-0.3-0.5-0.3-0.8v-0.1l0,0c0-0.2,0-0.3,0.1-0.5s0.1-0.3,0.2-0.4l0,0c0.1-0.1,0.2-0.2,0.3-0.2l0,0
							c0.1,0,0.3-0.1,0.4-0.1s0.2,0,0.3,0h0.1c0,0,0.1,0,0.1,0.1c0,0,0.1,0,0.1,0.1l0.1,0.1l0.1,0.1c0,0,0,0.1,0.1,0.1
							c0.1,0.2,0.1,0.4,0.1,0.6l0,0C30.8,11.6,30.6,11.9,30.4,12.2z M32.2,12.4V9.8h-0.4v2.9h1.8v-0.3
							C33.6,12.4,32.2,12.4,32.2,12.4z M34.6,12.4v-1h1.6v-0.3h-1.6v-0.9h1.7V9.8h-2.1v2.9h2.2v-0.3C36.4,12.4,34.6,12.4,34.6,12.4z
							 M36.9,9.8v0.3h1v2.6h0.4v-2.6h1V9.8H36.9z M42.2,10.5L42.2,10.5c-0.1-0.2-0.3-0.4-0.5-0.5S41.2,9.8,41,9.8s-0.4,0-0.6,0.1
							c-0.2,0.1-0.3,0.2-0.5,0.3c-0.3,0.3-0.4,0.7-0.4,1.1c0,0.3,0.1,0.5,0.2,0.7c0.1,0.1,0.1,0.2,0.2,0.3c0.1,0.1,0.2,0.2,0.3,0.2
							c0.2,0.1,0.5,0.2,0.7,0.2H41h0.1c0.1,0,0.2,0,0.4-0.1c0.1,0,0.1-0.1,0.2-0.1c0.1,0,0.1-0.1,0.2-0.1c0.1,0,0.1-0.1,0.1-0.1
							c0.1-0.1,0.2-0.2,0.2-0.3c0.1-0.2,0.2-0.5,0.2-0.8C42.4,11,42.3,10.8,42.2,10.5z M42,11.3c0,0.3-0.1,0.6-0.3,0.9
							c-0.1,0.1-0.2,0.2-0.3,0.2c-0.1,0.1-0.3,0.1-0.4,0.1s-0.3,0-0.4-0.1c-0.1-0.1-0.2-0.1-0.3-0.2C40,12,40,11.7,40,11.4v-0.1
							c0-0.2,0-0.3,0.1-0.5s0.1-0.3,0.2-0.4c0.1-0.1,0.2-0.2,0.3-0.2s0.3-0.1,0.4-0.1c0.2,0,0.4,0,0.5,0.1c0.2,0.1,0.3,0.2,0.4,0.4
							C41.9,10.9,42,11.1,42,11.3L42,11.3z"/>
					</g>
				</g>
				<path class="st1" d="M184.6,6.2c-0.2-0.2-0.6-0.4-0.9-0.4h-1.1c-0.1,0-0.2,0-0.2,0h-0.1c-0.1,0-0.1,0-0.2,0.1
					c-0.2,0.1-0.3,0.2-0.4,0.3c-0.1,0.1-0.2,0.3-0.3,0.4l0,0c-0.1,0.2-0.1,0.3-0.1,0.5v3.6c0,0.1,0,0.1,0.1,0.1l0,0l0,0l0,0l0,0V7.1
					c0-0.1,0-0.3,0.1-0.4c0-0.1,0.1-0.1,0.1-0.2s0.1-0.1,0.1-0.1c0.1-0.1,0.1-0.1,0.2-0.1c0.1,0,0.1-0.1,0.2-0.1
					c0.1-0.1,0.3-0.1,0.4-0.1h1.1c0.3,0,0.6,0.1,0.8,0.3c0.2,0.2,0.3,0.5,0.3,0.8V8c0,0.1,0,0.2,0,0.3s0,0.1-0.1,0.2
					c0,0,0,0.1-0.1,0.1c0,0.1-0.1,0.1-0.1,0.2l-0.1,0.1c-0.1,0-0.1,0.1-0.2,0.1c-0.1-0.1-0.3,0-0.4,0h-1.5l0,0l0,0c0,0,0,0,0,0.1
					s0,0.1,0.1,0.1l0,0h1.5c0.1,0,0.2,0,0.2,0c0.1,0,0.2,0,0.3-0.1c0.2-0.1,0.3-0.2,0.4-0.3l0,0c0.1-0.1,0.2-0.3,0.3-0.4
					c0.1-0.2,0.1-0.3,0.1-0.5V7.1C185,6.8,184.8,6.4,184.6,6.2z M186.2,6.3L186.2,6.3c0-0.2-0.1-0.2-0.1-0.3
					c-0.1-0.1-0.1-0.1-0.2-0.1h-0.1h-0.1h-0.5c-0.1,0-0.1,0-0.1,0.1l0,0l0,0l0,0h0.5c0.1,0,0.1,0,0.1,0l0,0c0,0,0.1,0,0.1,0.1
					l0.1,0.1l0,0l0,0c0,0,0,0,0,0.1V9l0,0c0,0.1,0,0.1,0.1,0.1s0.1,0,0.1-0.1L186.2,6.3C186.2,6.4,186.2,6.3,186.2,6.3z M186.4,5.1
					L186.4,5.1l-0.2-0.3l0,0c0,0,0,0-0.1,0c0,0,0,0-0.1,0l0,0l0,0l0,0L185.8,5l0,0l0,0l0,0c0,0,0,0,0,0.1c0,0,0,0,0,0.1l0,0l0.2,0.2
					l0,0c0,0,0,0,0.1,0c0,0,0,0,0.1,0l0,0l0,0l0,0l0,0L186.4,5.1L186.4,5.1L186.4,5.1C186.4,5.2,186.4,5.2,186.4,5.1
					C186.4,5.2,186.4,5.2,186.4,5.1z M191.7,5.8h-0.4c-0.1,0-0.3,0-0.4,0.1c-0.1,0-0.2,0.1-0.3,0.2l-1.1,1.1c0,0-0.1,0-0.1,0.1
					c-0.1,0-0.1,0-0.2,0c0,0-0.1,0-0.1-0.1L188,6.1c-0.2-0.2-0.4-0.3-0.7-0.3H187c0,0-0.1,0-0.1,0.1l0,0l0,0c0,0.1,0,0.1,0.1,0.1
					l0,0h0.5c0.2,0,0.4,0.1,0.6,0.2l1.1,1.1l0.1,0.1c0.1,0,0.1,0,0.2,0c0.1,0,0.1,0,0.2,0c0.1,0,0.1-0.1,0.1-0.1l1.1-1.1
					c0.1-0.1,0.2-0.1,0.3-0.2c0.1,0,0.2-0.1,0.3-0.1h0.4c0,0,0.1,0,0.1-0.1l0,0C191.8,5.9,191.8,5.9,191.7,5.8
					C191.8,5.9,191.7,5.8,191.7,5.8z M191.8,9L191.8,9C191.7,8.9,191.7,8.9,191.8,9L191.8,9l-0.5-0.1c-0.1,0-0.2,0-0.3-0.1
					c-0.1,0-0.2-0.1-0.2-0.2l-1.1-1.1l-0.1-0.1l0,0c-0.1,0-0.2,0-0.4,0c-0.1,0-0.1,0.1-0.1,0.1L188,8.7c-0.1,0.1-0.3,0.2-0.6,0.2
					H187c-0.1,0-0.1,0-0.1,0.1l0,0l0,0l0,0h0.5c0.3,0,0.5-0.1,0.7-0.3l1.1-1.1c0,0,0.1,0,0.1-0.1c0.1,0,0.1,0,0.2,0
					c0,0,0.1,0,0.1,0.1l1.1,1.1c0.1,0.1,0.2,0.2,0.3,0.2s0.2,0.1,0.4,0.1H191.8C191.7,9.1,191.8,9.1,191.8,9L191.8,9L191.8,9z
					 M178.7,9.7c-0.1,0-0.2,0-0.3-0.1s-0.2-0.1-0.3-0.2l-0.9-0.9l0,0l0,0h-0.1H177l-0.9,0.9c-0.1,0.1-0.2,0.1-0.3,0.2
					c-0.1,0-0.2,0.1-0.3,0.1h-0.2l1.1,1.1l0,0l0.1,0.1l0,0c0,0,0.1,0.1,0.2,0.1c0.1,0,0.2,0.1,0.3,0.1c0.2,0,0.5-0.1,0.6-0.3
					L178.7,9.7C178.7,9.7,178.7,9.7,178.7,9.7z M178.8,6.6l-1.1-1.1c-0.1-0.1-0.2-0.1-0.3-0.2c-0.1,0-0.2-0.1-0.3-0.1
					s-0.2,0-0.3,0.1c-0.1,0-0.2,0.1-0.3,0.2l-1.1,1.1l0,0h0.2c0.1,0,0.1,0,0.2,0h0.1l0,0c0.1,0,0.2,0.1,0.3,0.2l0.9,0.9h0.1h0.1
					l0.9-0.9c0.1-0.1,0.2-0.1,0.3-0.2C178.5,6.7,178.6,6.6,178.8,6.6L178.8,6.6L178.8,6.6z M179.7,7.6L179.7,7.6L179,6.9l0,0h-0.3
					c-0.2,0-0.3,0.1-0.4,0.2L177.4,8l-0.1,0.1c-0.1,0-0.1,0-0.2,0c-0.1,0-0.2,0-0.3-0.1l-0.9-0.9c-0.1-0.1-0.3-0.2-0.4-0.2h-0.4l0,0
					l-0.7,0.7c-0.1,0.1-0.1,0.2-0.2,0.3c0,0.1-0.1,0.2-0.1,0.3c0,0.1,0,0.2,0.1,0.3c0,0.1,0.1,0.2,0.2,0.3l0.7,0.7l0,0h0.4
					c0.2,0,0.3-0.1,0.4-0.2l0.9-0.9c0.1-0.1,0.2-0.1,0.3-0.1s0.2,0,0.3,0.1l0.9,0.9c0.1,0.1,0.3,0.2,0.4,0.2h0.3l0,0l0.7-0.7
					c0.2-0.2,0.3-0.4,0.3-0.6S179.9,7.7,179.7,7.6z M182.5,10.4L182.5,10.4L182.5,10.4C182.4,10.3,182.4,10.3,182.5,10.4
					c-0.1-0.1-0.1-0.1-0.2-0.1c-0.1,0-0.1,0-0.2,0l0,0l0,0l0,0v0.4l0,0v-0.1l0,0h0.1l0,0l0,0c0,0,0,0,0.1,0
					C182.3,10.6,182.3,10.6,182.5,10.4C182.5,10.6,182.5,10.5,182.5,10.4C182.5,10.5,182.5,10.4,182.5,10.4z M182.3,10.6h-0.1v-0.2
					c0.1,0,0.1,0,0.2,0h0.1v0.1l0,0C182.5,10.6,182.4,10.6,182.3,10.6z M183,10.4L183,10.4C183,10.4,182.9,10.4,183,10.4
					c-0.1-0.1-0.1-0.1-0.2-0.1s-0.1,0-0.1,0s0,0,0,0.1v0.1c0,0,0,0,0,0.1l0,0c0,0,0,0,0,0.1h0.1h0.1l0,0l0,0l0,0
					C183,10.6,183,10.5,183,10.4C183,10.5,183,10.4,183,10.4z M182.9,10.6h-0.1h-0.1c0,0,0,0-0.1-0.1c0,0,0,0,0-0.1v-0.1h0.1h0.1
					c0,0,0,0,0.1,0.1C182.9,10.5,182.9,10.5,182.9,10.6C182.9,10.5,182.9,10.6,182.9,10.6z M183.6,10.3L183.6,10.3l-0.1,0.3l0,0l0,0
					l-0.1-0.3l0,0l0,0l-0.1,0.3l-0.1-0.3l0,0l0,0l0.1,0.3l0,0l0.1-0.2l0,0l0.1,0.3l0,0L183.6,10.3L183.6,10.3z M183.7,10.5h0.3
					c0-0.1,0-0.1-0.1-0.1h-0.1h-0.1C183.7,10.4,183.7,10.4,183.7,10.5C183.6,10.5,183.6,10.5,183.7,10.5
					C183.6,10.5,183.6,10.6,183.7,10.5c0,0.1,0,0.1,0,0.1l0,0l0,0l0,0c0,0,0,0,0.1,0s0.1,0,0.2,0l0,0c-0.1,0-0.1,0-0.2,0
					C183.7,10.6,183.7,10.6,183.7,10.5z M183.8,10.4c0.1,0,0.1,0,0.1,0.1h-0.3v-0.1H183.8z M184.3,10.3h-0.1l0,0l0,0l0,0l0,0v0.3
					l0,0v-0.3C184.2,10.4,184.3,10.4,184.3,10.3L184.3,10.3L184.3,10.3L184.3,10.3z M184.4,10.5h0.3c0-0.1,0-0.1-0.1-0.1h-0.1h-0.1
					C184.4,10.4,184.4,10.4,184.4,10.5C184.3,10.4,184.3,10.5,184.4,10.5C184.3,10.5,184.3,10.5,184.4,10.5c0,0.1,0,0.1,0,0.1h0.1
					c0.1,0,0.1,0,0.2,0l0,0c-0.1,0-0.1,0-0.2,0C184.4,10.6,184.4,10.6,184.4,10.5z M184.5,10.4c0.1,0,0.1,0,0.1,0s0,0,0,0.1h-0.3
					C184.4,10.4,184.4,10.4,184.5,10.4z M185.1,10.2v0.2H185h-0.1c0,0,0,0-0.1,0.1c0,0,0,0,0,0.1c0,0,0,0,0,0.1c0,0,0,0,0,0.1h0.1
					c0.1,0,0.1,0,0.2,0l0,0l0,0L185.1,10.2L185.1,10.2z M185.1,10.6c-0.1,0-0.1,0-0.2,0c-0.1,0-0.1,0-0.1-0.1s0.1-0.1,0.2-0.1h0.1
					V10.6z M185.9,10.4C185.8,10.4,185.8,10.4,185.9,10.4L185.9,10.4c-0.1-0.1-0.1-0.1-0.2-0.1c-0.1,0-0.1,0-0.2,0v-0.1l0,0v0.5l0,0
					l0,0h0.1h0.1c0,0,0,0,0.1-0.1C185.9,10.5,185.9,10.5,185.9,10.4C185.9,10.5,185.8,10.4,185.9,10.4L185.9,10.4L185.9,10.4z
					 M185.8,10.6L185.8,10.6c-0.1,0.1-0.1,0.1-0.1,0.1h-0.1v-0.2C185.7,10.5,185.7,10.5,185.8,10.6
					C185.8,10.4,185.8,10.4,185.8,10.6L185.8,10.6C185.8,10.5,185.8,10.5,185.8,10.6z M186.2,10.3L186.2,10.3l-0.1,0.3l-0.1-0.3l0,0
					l0,0l0,0l0,0l0.2,0.3l0,0l0,0c0,0,0,0-0.1,0l0,0l0,0l0,0h0.1c0,0,0,0,0.1-0.1L186.2,10.3L186.2,10.3L186.2,10.3z M186.9,10.4
					L186.9,10.4L186.9,10.4c0.1-0.1,0.1-0.1,0.1-0.1l0,0c0,0-0.1,0-0.2,0h-0.2v0.4h0.2c0.1,0,0.2,0,0.2,0l0,0
					C187,10.6,187,10.6,186.9,10.4C187,10.5,186.9,10.5,186.9,10.4z M186.6,10.3h0.1h0.1l0,0c0,0,0,0.1-0.1,0.1h-0.1V10.3z
					 M186.9,10.6C186.8,10.6,186.8,10.6,186.9,10.6h-0.2v-0.1L186.9,10.6C186.8,10.5,186.8,10.5,186.9,10.6
					C186.9,10.5,186.9,10.5,186.9,10.6L186.9,10.6z M187.4,10.4L187.4,10.4L187.4,10.4L187.4,10.4c-0.1-0.1-0.1-0.1-0.2-0.1h-0.1
					v0.1h0.1C187.3,10.4,187.4,10.4,187.4,10.4C187.3,10.5,187.3,10.5,187.4,10.4h-0.2h-0.1l0,0l0,0c0,0,0,0,0,0.1l0,0l0,0h0.1
					c0.1,0,0.1,0,0.2,0l0,0h0.1L187.4,10.4C187.4,10.5,187.4,10.4,187.4,10.4z M187.3,10.6h-0.1c-0.1,0-0.1,0-0.1,0s0,0,0.1,0
					C187.3,10.5,187.3,10.5,187.3,10.6L187.3,10.6z M187.9,10.4h-0.1c-0.1,0-0.1,0-0.2,0l0,0h-0.1v0.3h0.1v-0.2h0.1
					C187.8,10.4,187.8,10.4,187.9,10.4c-0.1,0.1-0.1,0.1-0.1,0.1v0.2h0.1V10.4C187.9,10.5,187.9,10.4,187.9,10.4L187.9,10.4z
					 M188.2,10.3L188.2,10.3L188.2,10.3c-0.1,0-0.1,0-0.1,0s0,0,0,0.1c0,0,0,0,0,0.1c0,0,0,0,0,0.1l0,0c0,0,0,0,0,0.1l0,0l0,0l0,0
					c0.1,0,0.1,0,0.2,0v-0.1h-0.1c0,0,0,0-0.1,0l0,0c0,0,0,0,0-0.1l0,0C188.1,10.4,188.1,10.4,188.2,10.3l0.1,0.1v-0.1H188.2z
					 M188.8,10.4L188.8,10.4c-0.1-0.1-0.1-0.1-0.2-0.1c-0.1,0-0.1,0-0.2,0c0,0,0,0,0,0.1v0.1v0.1c0,0,0,0,0,0.1l0,0c0,0,0.1,0,0.2,0
					c0.1,0,0.1,0,0.2,0l0,0c0,0,0,0,0-0.1C188.8,10.6,188.8,10.5,188.8,10.4C188.8,10.5,188.8,10.4,188.8,10.4z M188.6,10.4
					c0.1,0,0.1,0,0.1,0.1s0,0.1-0.1,0.1s-0.1,0-0.1-0.1S188.5,10.4,188.6,10.4z M189.3,10.6c-0.1,0-0.1,0-0.1-0.1c0,0,0,0,0-0.1
					v-0.1c0,0,0,0,0.1,0c0,0,0,0,0.1,0h0.1v-0.1h-0.1l0,0h-0.1c0,0,0,0-0.1,0l0,0l0,0l0,0v0.1c0,0.1,0,0.1,0.1,0.2
					C189.2,10.6,189.2,10.6,189.3,10.6C189.3,10.7,189.3,10.7,189.3,10.6c0.1,0.1,0.1,0.1,0.2,0.1v-0.1
					C189.5,10.6,189.4,10.6,189.3,10.6z M190,10.5L190,10.5c0-0.1,0-0.1,0-0.1l0,0h-0.1h-0.1l0,0c0,0,0,0,0,0.1v0.1c0,0,0,0,0,0.1
					c0,0,0,0,0,0.1l0,0h0.1l0,0c0.1,0,0.1,0,0.2,0L190,10.5c-0.1,0.1-0.1,0.1-0.2,0.1c-0.1,0-0.1,0-0.1-0.1H190z M189.7,10.4
					L189.7,10.4L189.7,10.4c0.1,0,0.2,0,0.2,0s0,0,0,0.1L189.7,10.4C189.7,10.5,189.7,10.4,189.7,10.4z M190.4,10.4L190.4,10.4h-0.1
					c-0.1,0-0.1,0-0.2,0l0,0H190v0.3h0.1v-0.2h0.1c0.1,0,0.1,0,0.1,0.1v0.2h0.1L190.4,10.4C190.5,10.5,190.5,10.4,190.4,10.4
					C190.5,10.4,190.5,10.4,190.4,10.4z M190.7,10.3L190.7,10.3L190.7,10.3L190.7,10.3h-0.2v0.1L190.7,10.3l-0.1,0.2v0.1l0,0l0,0
					c0,0,0,0,0.1,0h0.1v-0.1c0,0,0,0-0.1,0l0,0l0,0l0,0C190.7,10.5,190.7,10.5,190.7,10.3L190.7,10.3l0.1,0.1v-0.1H190.7z
					 M191.1,10.3c-0.1,0-0.1,0-0.2,0l0,0h-0.1v0.3h0.1v-0.2C191,10.4,191,10.4,191.1,10.3L191.1,10.3L191.1,10.3L191.1,10.3z
					 M191.5,10.4L191.5,10.4c-0.1-0.1-0.1-0.1-0.2-0.1h-0.1v0.1h0.1C191.4,10.4,191.4,10.4,191.5,10.4
					C191.4,10.5,191.4,10.5,191.5,10.4h-0.2h-0.1l0,0l0,0l0,0c0,0,0,0,0,0.1l0,0l0,0h0.1c0.1,0,0.1,0,0.2,0l0,0h0.1L191.5,10.4
					C191.5,10.5,191.5,10.4,191.5,10.4z M191.4,10.6h-0.1c-0.1,0-0.1,0-0.1,0s0,0,0.1,0C191.4,10.5,191.4,10.5,191.4,10.6
					L191.4,10.6z M191.6,10.2v0.5h0.1L191.6,10.2L191.6,10.2z M162.6,7.3L162.6,7.3c-0.3-0.3-0.7-0.4-1.1-0.4
					c-0.5,0-0.8,0.1-1.1,0.4l-0.1,0.1c0,0-0.1,0.1-0.1,0.2l0,0l0.6,0.4c0.1-0.1,0.1-0.1,0.2-0.2c0.1-0.1,0.2-0.2,0.3-0.2
					s0.2-0.1,0.4-0.1c0.1,0,0.2,0,0.3,0.1c0.1,0,0.1,0,0.2,0.1l0.1,0.1l0,0c0.2,0.1,0.3,0.4,0.3,0.6v0.2c-0.3-0.1-0.6-0.2-1-0.2
					c-0.5,0-0.8,0.1-1.1,0.3s-0.4,0.5-0.4,0.9c0,0.3,0.1,0.7,0.4,0.9c0.3,0.2,0.6,0.3,1,0.3c0.3,0,0.6-0.1,0.9-0.3
					c0.1-0.1,0.1-0.2,0.2-0.3l0,0l0,0v0.5h0.6V8.4C163,7.9,162.9,7.6,162.6,7.3z M162.4,9.3c0,0.1-0.1,0.2-0.2,0.4
					c0,0.1-0.1,0.1-0.1,0.2S162,10,161.9,10c-0.1,0.1-0.2,0.1-0.3,0.1s-0.2,0-0.3,0c-0.2,0-0.4-0.1-0.5-0.2
					c-0.1-0.1-0.2-0.3-0.2-0.4V9.4c0-0.1,0.1-0.2,0.1-0.2l0.1-0.1l0,0C160.9,9,161,9,161.1,9s0.1,0,0.2,0c0.1,0,0.1,0,0.2,0
					c0.4,0,0.6,0.1,0.9,0.2C162.4,9.1,162.4,9.2,162.4,9.3z M165.9,7l-1,2.5l0,0l0,0l0,0l-1-2.5h-0.7l1.4,3.3l-0.8,1.8l0,0h0.7l0,0
					l2.2-5.1C166.7,7,165.9,7,165.9,7z M159.5,5.9C159.5,5.8,159.5,5.8,159.5,5.9c-0.1-0.1-0.2-0.2-0.2-0.2
					c-0.1-0.1-0.2-0.1-0.3-0.1c-0.2-0.1-0.4-0.1-0.6-0.1h-1.7v5.2h0.7V8.5h1.1c0.1,0,0.2,0,0.3,0c0.3-0.1,0.6-0.2,0.8-0.4l0.1-0.1
					c0.1-0.1,0.2-0.3,0.3-0.5c0-0.1,0.1-0.2,0.1-0.3C160,6.7,159.9,6.2,159.5,5.9z M159.3,7.1c0,0.2-0.1,0.3-0.2,0.4l0,0
					c-0.2,0.2-0.4,0.3-0.6,0.3h-1.1V6h1.1c0.1,0,0.2,0,0.3,0.1c0.1,0,0.2,0.1,0.3,0.2l0,0c0.2,0.2,0.3,0.4,0.3,0.7
					C159.3,7,159.3,7.1,159.3,7.1z M155,7.4L155,7.4h-2.8v1.2h1.6c-0.1,0.4-0.3,0.7-0.6,0.9s-0.6,0.3-1,0.3c-0.8,0-1.4-0.5-1.6-1.2
					c-0.1-0.2-0.1-0.4-0.1-0.6c0-0.2,0-0.4,0.1-0.6c0.2-0.7,0.9-1.2,1.6-1.2c0.4,0,0.8,0.2,1.1,0.4l0.8-0.9c-0.5-0.5-1.2-0.8-2-0.8
					c-1.1,0-2.1,0.6-2.6,1.6c-0.4,0.8-0.4,1.8,0,2.7c0.5,1,1.5,1.6,2.6,1.6c0.8,0,1.5-0.3,1.9-0.7c0.6-0.5,0.9-1.3,0.9-2.2
					C155,7.8,155,7.6,155,7.4z M131.8,11.3L131.8,11.3C131.8,11.2,131.8,11.2,131.8,11.3h-0.6c0,0-0.1,0-0.1,0.1v0.1l0,0l0,0
					c-0.1-0.2-0.4-0.2-0.6-0.2c-0.6,0-1.1,0.4-1.2,1c0,0.1,0,0.1,0,0.2c0,0.1,0,0.1,0,0.2c0,0.2,0.1,0.3,0.2,0.4l0,0
					c0.2,0.2,0.4,0.3,0.7,0.3c0.4,0,0.6-0.2,0.7-0.3l0,0v0.1l0,0l0,0c0,0,0,0,0.1,0h0.5c0.1,0,0.1-0.1,0.1-0.1L131.8,11.3
					C131.9,11.3,131.9,11.3,131.8,11.3z M130.5,12.7c-0.1,0-0.3,0-0.3-0.1c-0.1-0.1-0.1-0.2-0.1-0.4c0-0.1,0-0.1,0.1-0.2
					c0-0.1,0.1-0.1,0.1-0.2c0.1-0.1,0.2-0.1,0.4-0.1c0.1,0,0.3,0,0.3,0.1l0,0c0.1,0.1,0.1,0.2,0.1,0.4
					C131,12.5,130.8,12.7,130.5,12.7z M129.3,10.5L129.3,10.5c-0.1-0.1-0.1-0.1-0.2-0.1c0,0-0.1-0.1-0.2-0.1c-0.1,0-0.3-0.1-0.5-0.1
					h-1.1c-0.1,0-0.1,0.1-0.1,0.1l-0.4,2.8l0,0c0,0,0,0.1,0.1,0.1l0,0h0.5c0.1,0,0.1-0.1,0.1-0.1l0.1-0.7v-0.1h0.1h0.3
					c0.7,0,1.1-0.3,1.2-1l0,0C129.5,10.9,129.5,10.7,129.3,10.5z M128,10.9L128,10.9L128,10.9L128,10.9C128,10.8,128,10.8,128,10.9
					C128,10.8,128,10.8,128,10.9l0.2-0.1c0.2,0,0.4,0,0.5,0.1l0,0c0.1,0.1,0.1,0.2,0.1,0.3s-0.1,0.2-0.1,0.3
					c-0.1,0.1-0.3,0.1-0.5,0.1H128V10.9z M134.6,11.3C134.6,11.2,134.6,11.2,134.6,11.3L134.6,11.3H134c0,0-0.1,0-0.1,0.1l-0.7,1.1
					l0,0l-0.3-1l0,0l0,0c0,0,0,0-0.1,0h-0.5c-0.1,0-0.1,0-0.1,0.1l0,0l0.6,1.7l0,0l-0.5,0.8c0,0,0,0,0,0.1l0,0c0,0,0,0.1,0.1,0.1
					h0.5c0,0,0.1,0,0.1-0.1l1.7-2.5C134.6,11.4,134.6,11.3,134.6,11.3L134.6,11.3z M139.5,11.3L139.5,11.3
					C139.5,11.2,139.5,11.2,139.5,11.3h-0.6c0,0-0.1,0-0.1,0.1v0.1l0,0l0,0c-0.1-0.2-0.4-0.2-0.6-0.2c-0.6,0-1.1,0.4-1.2,1
					c0,0.1,0,0.1,0,0.2c0,0.1,0,0.1,0,0.2c0,0.2,0.1,0.3,0.2,0.4l0,0c0.2,0.2,0.4,0.3,0.7,0.3c0.4,0,0.6-0.2,0.7-0.3l0,0v0.1l0,0
					l0,0c0,0,0,0,0.1,0h0.5c0.1,0,0.1-0.1,0.1-0.1L139.5,11.3C139.6,11.3,139.6,11.3,139.5,11.3z M138.2,12.7c-0.1,0-0.1,0-0.2,0
					h-0.1c0,0,0,0-0.1-0.1l-0.1-0.1c0,0,0,0,0-0.1s0-0.1,0-0.2c0-0.1,0.1-0.2,0.1-0.3c0.1-0.1,0.3-0.2,0.5-0.2c0.1,0,0.3,0,0.3,0.1
					l0,0c0.1,0.1,0.1,0.2,0.1,0.4l0,0c0,0.1-0.1,0.2-0.1,0.3C138.5,12.6,138.3,12.7,138.2,12.7z M137.1,10.6
					C137.1,10.6,137.1,10.5,137.1,10.6c-0.1-0.1-0.1-0.2-0.2-0.2c0,0-0.1,0-0.1-0.1c-0.1-0.1-0.3-0.1-0.5-0.1h-1.1
					c-0.1,0-0.1,0.1-0.1,0.1l-0.4,2.8l0,0c0,0,0,0.1,0.1,0.1l0,0h0.6h0.1c0,0,0,0,0-0.1l0.1-0.8c0-0.1,0.1-0.1,0.1-0.1h0.3
					c0.7,0,1.1-0.3,1.2-1l0,0C137.2,10.9,137.2,10.7,137.1,10.6z M135.7,10.9L135.7,10.9L135.7,10.9L135.7,10.9
					C135.7,10.8,135.7,10.8,135.7,10.9C135.7,10.8,135.7,10.8,135.7,10.9l0.2-0.1c0.2,0,0.4,0,0.5,0.1l0,0c0.1,0.1,0.1,0.2,0.1,0.3
					s-0.1,0.2-0.1,0.3c-0.1,0.1-0.3,0.1-0.5,0.1h-0.2V10.9z M140.7,10.2L140.7,10.2L140.7,10.2L140.7,10.2h-0.6c0,0,0,0-0.1,0l0,0
					l0,0l0,0l0,0l-0.4,2.8v0.1l0,0h0.4c0.1,0,0.1-0.1,0.1-0.1L140.7,10.2C140.7,10.3,140.7,10.3,140.7,10.2z M137.1,4.4
					c0-0.1-0.1-0.3-0.2-0.4c-0.1-0.1-0.2-0.2-0.3-0.3c0.1-0.6,0-1-0.3-1.4l0,0c-0.1-0.1-0.2-0.2-0.3-0.3l0,0
					c-0.1-0.1-0.3-0.1-0.4-0.2c-0.3-0.1-0.7-0.1-1.1-0.1H132h-0.1c0,0-0.1,0-0.1,0.1c-0.1,0.1-0.1,0.1-0.1,0.2l-1,6.3l0,0l0,0
					c0,0.1,0,0.1,0.1,0.1l0.1,0.1h1.5l-0.1,0.6v0.1c0,0,0,0.1,0.1,0.1c0,0,0,0,0.1,0h1.2c0.1,0,0.3-0.1,0.3-0.3V8.9l0.2-1.5V7.3
					c0-0.1,0.1-0.3,0.3-0.3h0.2c1.2,0,2.1-0.5,2.4-1.9C137.2,5.1,137.2,4.7,137.1,4.4z M136.4,4C136.4,4,136.5,4,136.4,4
					c-0.1,0.6-0.3,1-0.6,1.3c-0.5,0.6-1.2,0.8-2.1,0.8H133c-0.1,0-0.2,0-0.2,0.1l-0.1,0.1l0,0l0,0l0.4-2.5c0-0.1,0-0.1,0.1-0.1
					c0,0,0,0,0.1-0.1c0,0,0,0,0.1,0h0.1h1.9c0.2,0,0.4,0,0.6,0c0.1,0,0.1,0,0.2,0c0.1,0,0.1,0,0.1,0s0,0,0.1,0l0,0c0,0,0,0,0,0.1
					L136.4,4L136.4,4z M80.8,7.9c0-1.5,0.6-2.8,1.7-3.6c-0.8-0.7-1.9-1.1-3.1-1.1c-2.6,0-4.7,2.1-4.7,4.8s2.1,4.8,4.7,4.8
					c1.2,0,2.2-0.4,3.1-1.1C81.4,10.7,80.8,9.4,80.8,7.9z M85.5,3.1c-0.6,0-1.1,0.1-1.7,0.3c-0.5,0.2-1,0.5-1.4,0.8
					c1,0.9,1.7,2.2,1.7,3.6c0,1.5-0.6,2.8-1.7,3.6c0.1,0.1,0.2,0.2,0.3,0.3c0.2,0.2,0.5,0.3,0.7,0.4c0.1,0.1,0.2,0.1,0.4,0.2
					c0.2,0.1,0.3,0.1,0.5,0.1c0.2,0.1,0.5,0.1,0.8,0.1c0.1,0,0.3,0,0.4,0c2.6,0,4.7-2.1,4.7-4.8S88.1,3.1,85.5,3.1z M113.2,7H111
					v0.7h1.9v0.7H111v0.7h2.2l0,0l1-1.1L113.2,7z M102,6.9l-0.6,1.4h1.2L102,6.9z M113.2,7H111v0.7h1.9v0.7H111v0.7h2.2l0,0l1-1.1
					L113.2,7z M113.2,7H111v0.7h1.9v0.7H111v0.7h2.2l0,0l1-1.1L113.2,7z M102,6.9l-0.6,1.4h1.2L102,6.9z M116.4,8.1l2.3-2.5h-3.1
					l-0.7,0.8l-0.7-0.8h-6.8l-0.6,1.3l-0.6-1.3h-2.7v0.6l-0.3-0.6h-2.3l-2.3,5h2.7l0.3-0.8h0.8l0.3,0.8h3V9.9l0.3,0.6h1.5l0.3-0.6
					v0.6h6.2l0.8-0.8l0.7,0.8l0,0h3.2l0,0l0,0L116.4,8.1z M109.3,9.9h-0.9V7l-1.3,2.8h-0.8L105.1,7v2.8h-1.8L102.9,9H101l-0.3,0.8
					h-1l1.6-3.6h1.3l1.5,3.4V6.3h1.4l1.2,2.4l1.1-2.4h1.4v3.6H109.3z M113.6,9.9h-3.5V6.3h3.6l1.1,1.2l0,0l1.1-1.2h1.1l-1.7,1.8l0,0
					l1.7,1.8h-1.1l0,0l-1.1-1.2l0,0L113.6,9.9z M111,7v0.7h1.9v0.7H111v0.7h2.2l0,0l1-1.1l-1-1.1H111V7z M101.4,8.3h1.2L102,6.9
					L101.4,8.3z M102,6.9l-0.6,1.4h1.2L102,6.9z M113.2,7H111v0.7h1.9v0.7H111v0.7h2.2l0,0l1-1.1L113.2,7z M102,6.9l-0.6,1.4h1.2
					L102,6.9z M55.2,5.6L55.2,5.6l-1.5,3.6l-0.6-3V6.1c-0.1-0.2-0.3-0.4-0.6-0.4h-2.4v0.2C50.6,6,51,6.1,51.4,6.3l0.1,0.1l0.1,0.1
					l0,0c0.1,0.1,0.1,0.2,0.1,0.3l0,0l1.1,4.2h1.5l2.2-5.2l0,0l0,0h-1.3V5.6z M61,6.7c0.5,0,0.9,0,1.3,0.2l0.2-1.1
					c-0.4-0.2-0.9-0.2-1.3-0.2c-1.3,0-2.3,0.7-2.3,1.7c0,0.8,0.7,1.2,1.2,1.4s0.7,0.4,0.7,0.6c0,0.4-0.4,0.5-0.8,0.5
					c-0.5,0-1-0.1-1.4-0.3l-0.2,1.1c0.5,0.2,1,0.3,1.5,0.3c1.5,0,2.4-0.7,2.4-1.8c0-1.4-1.9-1.5-1.9-2.1l0,0
					C60.4,6.8,60.7,6.7,61,6.7z M57.2,5.7L56.1,11h1.4l1.1-5.3H57.2z M66.1,5.7h-1.2c-0.2,0-0.4,0.1-0.5,0.2c0,0.1-0.1,0.1-0.1,0.2
					l-2,4.9h1.4l0.3-0.8h1.8L66,11h1.3L66.1,5.7z M64.3,9.1l0.7-2l0,0l0.4,2H64.3z M33.4,3.1v5.1h0.2V3.1H33.4z M33.1,3.1v5.1h0.2
					V3.1H33.1z M34.4,3.1v5.1h0.2V3.1H34.4z M30.6,3.1v5.1h0.2V3.1H30.6z M35.4,3.1v5.1h0.2V3.1H35.4z M31.9,3.1v5.1h0.2V3.1H31.9z
					 M32.2,3.1v5.1h0.3V3.1H32.2z M30.1,3.1v5.1h0.3V3.1H30.1z M37.4,3.1v5.1h0.3V3.1H37.4z M41.9,3.1v5.1H42L41.9,3.1L41.9,3.1z
					 M41,3.1v5.1h0.2V3.1H41z M41.5,3.1v5.1h0.2V3.1H41.5z M37.8,3.1v5.1H38V3.1H37.8z M40.3,3.1v5.1h0.2V3.1H40.3z M38.3,3.1v5.1
					h0.6V3.1H38.3z M25.3,3.1v5.1h0.2V3.1H25.3z M33.7,3.1v5.1h0.2V3.1H33.7z M29,3.1v5.1h0.5V3.1H29z M28.1,3.1v5.1h0.2V3.1H28.1z
					 M30.9,3.1v5.1h0.3V3.1H30.9z M34.1,3.1v5.1h0.2V3.1H34.1z M27.2,3.1v5.1h0.7V3.1H27.2z M39.5,3.1v5.1H40V3.1H39.5z M26.9,3.1
					v5.1H27V3.1H26.9z M28.5,3.1v5.1h0.3V3.1H28.5z M26.2,3.1v5.1h0.3V3.1H26.2z M25.7,3.1v5.1h0.2V3.1H25.7z M36.6,3.1v5.1H37V3.1
					H36.6z M35.9,3.1v5.1h0.5V3.1H35.9z M34.6,12.4v-1h1.6v-0.3h-1.6v-0.9h1.7V9.8h-2.1v2.9h2.2v-0.3C36.4,12.4,34.6,12.4,34.6,12.4
					z M31,10.5L31,10.5c0-0.1-0.1-0.1-0.1-0.2c0-0.1-0.1-0.1-0.1-0.1c-0.1-0.1-0.2-0.2-0.3-0.2c-0.2-0.1-0.5-0.2-0.7-0.2
					s-0.4,0-0.6,0.1s-0.3,0.2-0.5,0.3c-0.3,0.3-0.4,0.7-0.4,1.1c0,0.3,0.1,0.5,0.2,0.7c0.1,0.1,0.1,0.2,0.2,0.3s0.2,0.2,0.3,0.2
					c0.2,0.1,0.5,0.2,0.7,0.2h0.1h0.1c0.1,0,0.2,0,0.4-0.1c0.1,0,0.1,0,0.2-0.1c0.1,0,0.1-0.1,0.2-0.1s0.1-0.1,0.1-0.1
					c0.1-0.1,0.2-0.2,0.2-0.3c0.1-0.2,0.2-0.5,0.2-0.8C31.1,11,31.1,10.8,31,10.5z M30.7,11.3c0,0.3-0.1,0.6-0.3,0.9l0,0
					c-0.1,0.1-0.2,0.2-0.3,0.2c-0.1,0.1-0.3,0.1-0.4,0.1s-0.3,0-0.4-0.1s-0.2-0.1-0.3-0.2l0,0c-0.2-0.2-0.3-0.5-0.3-0.8v-0.1
					c0-0.2,0-0.3,0.1-0.5s0.1-0.3,0.2-0.4c0.1-0.1,0.2-0.2,0.3-0.2l0,0c0.1,0,0.3-0.1,0.4-0.1s0.2,0,0.3,0h0.1c0,0,0.1,0,0.1,0.1
					c0,0,0.1,0,0.1,0.1l0.1,0.1l0.1,0.1l0.1,0.1C30.7,10.9,30.7,11.1,30.7,11.3L30.7,11.3z M36.9,9.8v0.3h1v2.6h0.4v-2.6h1V9.8H36.9
					z M32.2,12.4V9.8h-0.4v2.9h1.8v-0.3C33.6,12.4,32.2,12.4,32.2,12.4z M42.2,10.5L42.2,10.5c-0.1-0.2-0.3-0.4-0.5-0.5
					S41.2,9.8,41,9.8s-0.4,0-0.6,0.1c-0.2,0.1-0.3,0.2-0.5,0.3c-0.3,0.3-0.4,0.7-0.4,1.1c0,0.3,0.1,0.5,0.2,0.7
					c0.1,0.1,0.1,0.2,0.2,0.3c0.1,0.1,0.2,0.2,0.3,0.2c0.2,0.1,0.5,0.2,0.7,0.2H41h0.1c0.1,0,0.2,0,0.4-0.1c0.1,0,0.1,0,0.2-0.1
					c0.1,0,0.1-0.1,0.2-0.1c0.1,0,0.1-0.1,0.1-0.1c0.1-0.1,0.2-0.2,0.2-0.3c0.1-0.2,0.2-0.5,0.2-0.8C42.4,11,42.3,10.8,42.2,10.5z
					 M42,11.3c0,0.3-0.1,0.6-0.3,0.9l0,0c-0.1,0.1-0.2,0.2-0.3,0.2c-0.1,0.1-0.3,0.1-0.4,0.1s-0.3,0-0.4-0.1
					c-0.1-0.1-0.2-0.1-0.3-0.2l0,0C40,12,40,11.7,40,11.4v-0.1c0-0.2,0-0.3,0.1-0.5s0.1-0.3,0.2-0.4c0.1-0.1,0.2-0.2,0.3-0.2
					s0.3-0.1,0.4-0.1c0.2,0,0.4,0,0.5,0.1c0.2,0.1,0.3,0.2,0.4,0.4C41.9,10.9,42,11.1,42,11.3L42,11.3z M27.6,11.5
					C27.6,11.5,27.6,11.4,27.6,11.5c-0.2-0.2-0.3-0.2-0.4-0.3l0,0c0.1,0,0.1-0.1,0.2-0.1s0.1-0.1,0.1-0.1c0.1-0.1,0.1-0.2,0.1-0.4
					c0-0.1,0-0.3-0.1-0.4c0-0.1-0.1-0.1-0.1-0.2c0,0-0.1,0-0.1-0.1h-0.1c-0.2-0.1-0.4-0.1-0.5-0.1h-1.1v2.9h1.1c0.2,0,0.3,0,0.5,0
					c0.1,0,0.2-0.1,0.3-0.1c0.1-0.1,0.2-0.2,0.2-0.3c0.1-0.1,0.1-0.3,0.1-0.4C27.8,11.8,27.7,11.6,27.6,11.5z M26,11.1v-0.9h0.6
					c0.1,0,0.3,0,0.4,0s0.2,0.1,0.2,0.2c0,0.1,0.1,0.2,0.1,0.3s0,0.2-0.1,0.3c-0.1,0-0.2,0-0.2,0c-0.1,0-0.2,0-0.4,0H26V11.1
					L26,11.1L26,11.1z M27.4,11.9c0,0.1,0,0.2-0.1,0.2c0,0.1-0.1,0.1-0.1,0.2c-0.1,0-0.1,0.1-0.2,0.1s-0.2,0-0.3,0H26v-1h0.7
					c0.1,0,0.3,0,0.4,0c0,0,0.1,0,0.1,0.1c0,0,0,0,0.1,0c0,0,0,0,0.1,0.1l0.1,0.1C27.4,11.8,27.4,11.9,27.4,11.9L27.4,11.9z"/>
				<path class="st1" d="M184.6,6.2c-0.2-0.2-0.6-0.4-0.9-0.4h-1.1c-0.1,0-0.2,0-0.2,0h-0.1c-0.1,0-0.1,0-0.2,0.1
					c-0.2,0.1-0.3,0.2-0.4,0.3c-0.1,0.1-0.2,0.3-0.3,0.4l0,0c-0.1,0.2-0.1,0.3-0.1,0.5v3.6c0,0.1,0,0.1,0.1,0.1l0,0l0,0l0,0l0,0V7.1
					c0-0.1,0-0.3,0.1-0.4c0-0.1,0.1-0.1,0.1-0.2s0.1-0.1,0.1-0.1c0.1-0.1,0.1-0.1,0.2-0.1c0.1,0,0.1-0.1,0.2-0.1
					c0.1-0.1,0.3-0.1,0.4-0.1h1.1c0.3,0,0.6,0.1,0.8,0.3c0.2,0.2,0.3,0.5,0.3,0.8V8c0,0.1,0,0.2,0,0.3s0,0.1-0.1,0.2
					c0,0,0,0.1-0.1,0.1c0,0.1-0.1,0.1-0.1,0.2l-0.1,0.1c-0.1,0-0.1,0.1-0.2,0.1c-0.1-0.1-0.3,0-0.4,0h-1.5l0,0l0,0c0,0,0,0,0,0.1
					s0,0.1,0.1,0.1l0,0h1.5c0.1,0,0.2,0,0.2,0c0.1,0,0.2,0,0.3-0.1c0.2-0.1,0.3-0.2,0.4-0.3l0,0c0.1-0.1,0.2-0.3,0.3-0.4
					c0.1-0.2,0.1-0.3,0.1-0.5V7.1C185,6.8,184.8,6.4,184.6,6.2z M186.2,6.3L186.2,6.3c0-0.2-0.1-0.2-0.1-0.3
					c-0.1-0.1-0.1-0.1-0.2-0.1h-0.1h-0.1h-0.5c-0.1,0-0.1,0-0.1,0.1l0,0l0,0l0,0h0.5c0.1,0,0.1,0,0.1,0l0,0c0,0,0.1,0,0.1,0.1
					l0.1,0.1l0,0l0,0c0,0,0,0,0,0.1V9l0,0c0,0.1,0,0.1,0.1,0.1s0.1,0,0.1-0.1L186.2,6.3C186.2,6.4,186.2,6.3,186.2,6.3z M186.4,5.1
					L186.4,5.1l-0.2-0.3l0,0c0,0,0,0-0.1,0c0,0,0,0-0.1,0l0,0l0,0l0,0L185.8,5l0,0l0,0l0,0c0,0,0,0,0,0.1c0,0,0,0,0,0.1l0,0l0.2,0.2
					l0,0c0,0,0,0,0.1,0c0,0,0,0,0.1,0l0,0l0,0l0,0l0,0L186.4,5.1L186.4,5.1L186.4,5.1C186.4,5.2,186.4,5.2,186.4,5.1
					C186.4,5.2,186.4,5.2,186.4,5.1z M191.7,5.8h-0.4c-0.1,0-0.3,0-0.4,0.1c-0.1,0-0.2,0.1-0.3,0.2l-1.1,1.1c0,0-0.1,0-0.1,0.1
					c-0.1,0-0.1,0-0.2,0c0,0-0.1,0-0.1-0.1L188,6.1c-0.2-0.2-0.4-0.3-0.7-0.3H187c0,0-0.1,0-0.1,0.1l0,0l0,0c0,0.1,0,0.1,0.1,0.1
					l0,0h0.5c0.2,0,0.4,0.1,0.6,0.2l1.1,1.1l0.1,0.1c0.1,0,0.1,0,0.2,0c0.1,0,0.1,0,0.2,0c0.1,0,0.1-0.1,0.1-0.1l1.1-1.1
					c0.1-0.1,0.2-0.1,0.3-0.2c0.1,0,0.2-0.1,0.3-0.1h0.4c0,0,0.1,0,0.1-0.1l0,0C191.8,5.9,191.8,5.9,191.7,5.8
					C191.8,5.9,191.7,5.8,191.7,5.8z M191.8,9L191.8,9C191.7,8.9,191.7,8.9,191.8,9L191.8,9l-0.5-0.1c-0.1,0-0.2,0-0.3-0.1
					c-0.1,0-0.2-0.1-0.2-0.2l-1.1-1.1l-0.1-0.1l0,0c-0.1,0-0.2,0-0.4,0c-0.1,0-0.1,0.1-0.1,0.1L188,8.7c-0.1,0.1-0.3,0.2-0.6,0.2
					H187c-0.1,0-0.1,0-0.1,0.1l0,0l0,0l0,0h0.5c0.3,0,0.5-0.1,0.7-0.3l1.1-1.1c0,0,0.1,0,0.1-0.1c0.1,0,0.1,0,0.2,0
					c0,0,0.1,0,0.1,0.1l1.1,1.1c0.1,0.1,0.2,0.2,0.3,0.2s0.2,0.1,0.4,0.1H191.8C191.7,9.1,191.8,9.1,191.8,9L191.8,9L191.8,9z
					 M178.7,9.7c-0.1,0-0.2,0-0.3-0.1s-0.2-0.1-0.3-0.2l-0.9-0.9l0,0l0,0h-0.1H177l-0.9,0.9c-0.1,0.1-0.2,0.1-0.3,0.2
					c-0.1,0-0.2,0.1-0.3,0.1h-0.2l1.1,1.1l0,0l0.1,0.1l0,0c0,0,0.1,0.1,0.2,0.1c0.1,0,0.2,0.1,0.3,0.1c0.2,0,0.5-0.1,0.6-0.3
					L178.7,9.7C178.7,9.7,178.7,9.7,178.7,9.7z M178.8,6.6l-1.1-1.1c-0.1-0.1-0.2-0.1-0.3-0.2c-0.1,0-0.2-0.1-0.3-0.1
					s-0.2,0-0.3,0.1c-0.1,0-0.2,0.1-0.3,0.2l-1.1,1.1l0,0h0.2c0.1,0,0.1,0,0.2,0h0.1l0,0c0.1,0,0.2,0.1,0.3,0.2l0.9,0.9h0.1h0.1
					l0.9-0.9c0.1-0.1,0.2-0.1,0.3-0.2C178.5,6.7,178.6,6.6,178.8,6.6L178.8,6.6L178.8,6.6z M179.7,7.6L179.7,7.6L179,6.9l0,0h-0.3
					c-0.2,0-0.3,0.1-0.4,0.2L177.4,8l-0.1,0.1c-0.1,0-0.1,0-0.2,0c-0.1,0-0.2,0-0.3-0.1l-0.9-0.9c-0.1-0.1-0.3-0.2-0.4-0.2h-0.4l0,0
					l-0.7,0.7c-0.1,0.1-0.1,0.2-0.2,0.3c0,0.1-0.1,0.2-0.1,0.3c0,0.1,0,0.2,0.1,0.3c0,0.1,0.1,0.2,0.2,0.3l0.7,0.7l0,0h0.4
					c0.2,0,0.3-0.1,0.4-0.2l0.9-0.9c0.1-0.1,0.2-0.1,0.3-0.1s0.2,0,0.3,0.1l0.9,0.9c0.1,0.1,0.3,0.2,0.4,0.2h0.3l0,0l0.7-0.7
					c0.2-0.2,0.3-0.4,0.3-0.6S179.9,7.7,179.7,7.6z M182.5,10.4L182.5,10.4L182.5,10.4C182.4,10.3,182.4,10.3,182.5,10.4
					c-0.1-0.1-0.1-0.1-0.2-0.1c-0.1,0-0.1,0-0.2,0l0,0l0,0l0,0v0.4l0,0v-0.1l0,0h0.1l0,0l0,0c0,0,0,0,0.1,0
					C182.3,10.6,182.3,10.6,182.5,10.4C182.5,10.6,182.5,10.5,182.5,10.4C182.5,10.5,182.5,10.4,182.5,10.4z M182.3,10.6h-0.1v-0.2
					c0.1,0,0.1,0,0.2,0h0.1v0.1l0,0C182.5,10.6,182.4,10.6,182.3,10.6z M183,10.4L183,10.4C183,10.4,182.9,10.4,183,10.4
					c-0.1-0.1-0.1-0.1-0.2-0.1s-0.1,0-0.1,0s0,0,0,0.1v0.1c0,0,0,0,0,0.1l0,0c0,0,0,0,0,0.1h0.1h0.1l0,0l0,0l0,0
					C183,10.6,183,10.5,183,10.4C183,10.5,183,10.4,183,10.4z M182.9,10.6h-0.1h-0.1c0,0,0,0-0.1-0.1c0,0,0,0,0-0.1v-0.1h0.1h0.1
					c0,0,0,0,0.1,0.1C182.9,10.5,182.9,10.5,182.9,10.6C182.9,10.5,182.9,10.6,182.9,10.6z M183.6,10.3L183.6,10.3l-0.1,0.3l0,0l0,0
					l-0.1-0.3l0,0l0,0l-0.1,0.3l-0.1-0.3l0,0l0,0l0.1,0.3l0,0l0.1-0.2l0,0l0.1,0.3l0,0L183.6,10.3L183.6,10.3z M183.7,10.5h0.3
					c0-0.1,0-0.1-0.1-0.1h-0.1h-0.1C183.7,10.4,183.7,10.4,183.7,10.5C183.6,10.5,183.6,10.5,183.7,10.5
					C183.6,10.5,183.6,10.6,183.7,10.5c0,0.1,0,0.1,0,0.1l0,0l0,0l0,0c0,0,0,0,0.1,0s0.1,0,0.2,0l0,0c-0.1,0-0.1,0-0.2,0
					C183.7,10.6,183.7,10.6,183.7,10.5z M183.8,10.4c0.1,0,0.1,0,0.1,0.1h-0.3v-0.1H183.8z M184.3,10.3h-0.1l0,0l0,0l0,0l0,0v0.3
					l0,0v-0.3C184.2,10.4,184.3,10.4,184.3,10.3L184.3,10.3L184.3,10.3L184.3,10.3z M184.4,10.5h0.3c0-0.1,0-0.1-0.1-0.1h-0.1h-0.1
					C184.4,10.4,184.4,10.4,184.4,10.5C184.3,10.4,184.3,10.5,184.4,10.5C184.3,10.5,184.3,10.5,184.4,10.5c0,0.1,0,0.1,0,0.1h0.1
					c0.1,0,0.1,0,0.2,0l0,0c-0.1,0-0.1,0-0.2,0C184.4,10.6,184.4,10.6,184.4,10.5z M184.5,10.4c0.1,0,0.1,0,0.1,0s0,0,0,0.1h-0.3
					C184.4,10.4,184.4,10.4,184.5,10.4z M185.1,10.2v0.2H185h-0.1c0,0,0,0-0.1,0.1c0,0,0,0,0,0.1c0,0,0,0,0,0.1c0,0,0,0,0,0.1h0.1
					c0.1,0,0.1,0,0.2,0l0,0l0,0L185.1,10.2L185.1,10.2z M185.1,10.6c-0.1,0-0.1,0-0.2,0c-0.1,0-0.1,0-0.1-0.1s0.1-0.1,0.2-0.1h0.1
					V10.6z M185.9,10.4C185.8,10.4,185.8,10.4,185.9,10.4L185.9,10.4c-0.1-0.1-0.1-0.1-0.2-0.1c-0.1,0-0.1,0-0.2,0v-0.1l0,0v0.5l0,0
					l0,0h0.1h0.1c0,0,0,0,0.1-0.1C185.9,10.5,185.9,10.5,185.9,10.4C185.9,10.5,185.8,10.4,185.9,10.4L185.9,10.4L185.9,10.4z
					 M185.8,10.6L185.8,10.6c-0.1,0.1-0.1,0.1-0.1,0.1h-0.1v-0.2C185.7,10.5,185.7,10.5,185.8,10.6
					C185.8,10.4,185.8,10.4,185.8,10.6L185.8,10.6C185.8,10.5,185.8,10.5,185.8,10.6z M186.2,10.3L186.2,10.3l-0.1,0.3l-0.1-0.3l0,0
					l0,0l0,0l0,0l0.2,0.3l0,0l0,0c0,0,0,0-0.1,0l0,0l0,0l0,0h0.1c0,0,0,0,0.1-0.1L186.2,10.3L186.2,10.3L186.2,10.3z M186.9,10.4
					L186.9,10.4L186.9,10.4c0.1-0.1,0.1-0.1,0.1-0.1l0,0c0,0-0.1,0-0.2,0h-0.2v0.4h0.2c0.1,0,0.2,0,0.2,0l0,0
					C187,10.6,187,10.6,186.9,10.4C187,10.5,186.9,10.5,186.9,10.4z M186.6,10.3h0.1h0.1l0,0c0,0,0,0.1-0.1,0.1h-0.1V10.3z
					 M186.9,10.6C186.8,10.6,186.8,10.6,186.9,10.6h-0.2v-0.1L186.9,10.6C186.8,10.5,186.8,10.5,186.9,10.6
					C186.9,10.5,186.9,10.5,186.9,10.6L186.9,10.6z M187.4,10.4L187.4,10.4L187.4,10.4L187.4,10.4c-0.1-0.1-0.1-0.1-0.2-0.1h-0.1
					v0.1h0.1C187.3,10.4,187.4,10.4,187.4,10.4C187.3,10.5,187.3,10.5,187.4,10.4h-0.2h-0.1l0,0l0,0c0,0,0,0,0,0.1l0,0l0,0h0.1
					c0.1,0,0.1,0,0.2,0l0,0h0.1L187.4,10.4C187.4,10.5,187.4,10.4,187.4,10.4z M187.3,10.6h-0.1c-0.1,0-0.1,0-0.1,0s0,0,0.1,0
					C187.3,10.5,187.3,10.5,187.3,10.6L187.3,10.6z M187.9,10.4h-0.1c-0.1,0-0.1,0-0.2,0l0,0h-0.1v0.3h0.1v-0.2h0.1
					C187.8,10.4,187.8,10.4,187.9,10.4c-0.1,0.1-0.1,0.1-0.1,0.1v0.2h0.1V10.4C187.9,10.5,187.9,10.4,187.9,10.4L187.9,10.4z
					 M188.2,10.3L188.2,10.3L188.2,10.3c-0.1,0-0.1,0-0.1,0s0,0,0,0.1c0,0,0,0,0,0.1c0,0,0,0,0,0.1l0,0c0,0,0,0,0,0.1l0,0l0,0l0,0
					c0.1,0,0.1,0,0.2,0v-0.1h-0.1c0,0,0,0-0.1,0l0,0c0,0,0,0,0-0.1l0,0C188.1,10.4,188.1,10.4,188.2,10.3l0.1,0.1v-0.1H188.2z
					 M188.8,10.4L188.8,10.4c-0.1-0.1-0.1-0.1-0.2-0.1c-0.1,0-0.1,0-0.2,0c0,0,0,0,0,0.1v0.1v0.1c0,0,0,0,0,0.1l0,0c0,0,0.1,0,0.2,0
					c0.1,0,0.1,0,0.2,0l0,0c0,0,0,0,0-0.1C188.8,10.6,188.8,10.5,188.8,10.4C188.8,10.5,188.8,10.4,188.8,10.4z M188.6,10.4
					c0.1,0,0.1,0,0.1,0.1s0,0.1-0.1,0.1s-0.1,0-0.1-0.1S188.5,10.4,188.6,10.4z M189.3,10.6c-0.1,0-0.1,0-0.1-0.1c0,0,0,0,0-0.1
					v-0.1c0,0,0,0,0.1,0c0,0,0,0,0.1,0h0.1v-0.1h-0.1l0,0h-0.1c0,0,0,0-0.1,0l0,0l0,0l0,0v0.1c0,0.1,0,0.1,0.1,0.2
					C189.2,10.6,189.2,10.6,189.3,10.6C189.3,10.7,189.3,10.7,189.3,10.6c0.1,0.1,0.1,0.1,0.2,0.1v-0.1
					C189.5,10.6,189.4,10.6,189.3,10.6z M190,10.5L190,10.5c0-0.1,0-0.1,0-0.1l0,0h-0.1h-0.1l0,0c0,0,0,0,0,0.1v0.1c0,0,0,0,0,0.1
					c0,0,0,0,0,0.1l0,0h0.1l0,0c0.1,0,0.1,0,0.2,0L190,10.5c-0.1,0.1-0.1,0.1-0.2,0.1c-0.1,0-0.1,0-0.1-0.1H190z M189.7,10.4
					L189.7,10.4L189.7,10.4c0.1,0,0.2,0,0.2,0s0,0,0,0.1L189.7,10.4C189.7,10.5,189.7,10.4,189.7,10.4z M190.4,10.4L190.4,10.4h-0.1
					c-0.1,0-0.1,0-0.2,0l0,0H190v0.3h0.1v-0.2h0.1c0.1,0,0.1,0,0.1,0.1v0.2h0.1L190.4,10.4C190.5,10.5,190.5,10.4,190.4,10.4
					C190.5,10.4,190.5,10.4,190.4,10.4z M190.7,10.3L190.7,10.3L190.7,10.3L190.7,10.3h-0.2v0.1L190.7,10.3l-0.1,0.2v0.1l0,0l0,0
					c0,0,0,0,0.1,0h0.1v-0.1c0,0,0,0-0.1,0l0,0l0,0l0,0C190.7,10.5,190.7,10.5,190.7,10.3L190.7,10.3l0.1,0.1v-0.1H190.7z
					 M191.1,10.3c-0.1,0-0.1,0-0.2,0l0,0h-0.1v0.3h0.1v-0.2C191,10.4,191,10.4,191.1,10.3L191.1,10.3L191.1,10.3L191.1,10.3z
					 M191.5,10.4L191.5,10.4c-0.1-0.1-0.1-0.1-0.2-0.1h-0.1v0.1h0.1C191.4,10.4,191.4,10.4,191.5,10.4
					C191.4,10.5,191.4,10.5,191.5,10.4h-0.2h-0.1l0,0l0,0l0,0c0,0,0,0,0,0.1l0,0l0,0h0.1c0.1,0,0.1,0,0.2,0l0,0h0.1L191.5,10.4
					C191.5,10.5,191.5,10.4,191.5,10.4z M191.4,10.6h-0.1c-0.1,0-0.1,0-0.1,0s0,0,0.1,0C191.4,10.5,191.4,10.5,191.4,10.6
					L191.4,10.6z M191.6,10.2v0.5h0.1L191.6,10.2L191.6,10.2z M162.6,7.3L162.6,7.3c-0.3-0.3-0.7-0.4-1.1-0.4
					c-0.5,0-0.8,0.1-1.1,0.4l-0.1,0.1c0,0-0.1,0.1-0.1,0.2l0,0l0.6,0.4c0.1-0.1,0.1-0.1,0.2-0.2c0.1-0.1,0.2-0.2,0.3-0.2
					s0.2-0.1,0.4-0.1c0.1,0,0.2,0,0.3,0.1c0.1,0,0.1,0,0.2,0.1l0.1,0.1l0,0c0.2,0.1,0.3,0.4,0.3,0.6v0.2c-0.3-0.1-0.6-0.2-1-0.2
					c-0.5,0-0.8,0.1-1.1,0.3s-0.4,0.5-0.4,0.9c0,0.3,0.1,0.7,0.4,0.9c0.3,0.2,0.6,0.3,1,0.3c0.3,0,0.6-0.1,0.9-0.3
					c0.1-0.1,0.1-0.2,0.2-0.3l0,0l0,0v0.5h0.6V8.4C163,7.9,162.9,7.6,162.6,7.3z M162.4,9.3c0,0.1-0.1,0.2-0.2,0.4
					c0,0.1-0.1,0.1-0.1,0.2S162,10,161.9,10c-0.1,0.1-0.2,0.1-0.3,0.1s-0.2,0-0.3,0c-0.2,0-0.4-0.1-0.5-0.2
					c-0.1-0.1-0.2-0.3-0.2-0.4V9.4c0-0.1,0.1-0.2,0.1-0.2l0.1-0.1l0,0C160.9,9,161,9,161.1,9s0.1,0,0.2,0c0.1,0,0.1,0,0.2,0
					c0.4,0,0.6,0.1,0.9,0.2C162.4,9.1,162.4,9.2,162.4,9.3z M165.9,7l-1,2.5l0,0l0,0l0,0l-1-2.5h-0.7l1.4,3.3l-0.8,1.8l0,0h0.7l0,0
					l2.2-5.1C166.7,7,165.9,7,165.9,7z M159.5,5.9C159.5,5.8,159.5,5.8,159.5,5.9c-0.1-0.1-0.2-0.2-0.2-0.2
					c-0.1-0.1-0.2-0.1-0.3-0.1c-0.2-0.1-0.4-0.1-0.6-0.1h-1.7v5.2h0.7V8.5h1.1c0.1,0,0.2,0,0.3,0c0.3-0.1,0.6-0.2,0.8-0.4l0.1-0.1
					c0.1-0.1,0.2-0.3,0.3-0.5c0-0.1,0.1-0.2,0.1-0.3C160,6.7,159.9,6.2,159.5,5.9z M159.3,7.1c0,0.2-0.1,0.3-0.2,0.4l0,0
					c-0.2,0.2-0.4,0.3-0.6,0.3h-1.1V6h1.1c0.1,0,0.2,0,0.3,0.1c0.1,0,0.2,0.1,0.3,0.2l0,0c0.2,0.2,0.3,0.4,0.3,0.7
					C159.3,7,159.3,7.1,159.3,7.1z M155,7.4L155,7.4h-2.8v1.2h1.6c-0.1,0.4-0.3,0.7-0.6,0.9s-0.6,0.3-1,0.3c-0.8,0-1.4-0.5-1.6-1.2
					c-0.1-0.2-0.1-0.4-0.1-0.6c0-0.2,0-0.4,0.1-0.6c0.2-0.7,0.9-1.2,1.6-1.2c0.4,0,0.8,0.2,1.1,0.4l0.8-0.9c-0.5-0.5-1.2-0.8-2-0.8
					c-1.1,0-2.1,0.6-2.6,1.6c-0.4,0.8-0.4,1.8,0,2.7c0.5,1,1.5,1.6,2.6,1.6c0.8,0,1.5-0.3,1.9-0.7c0.6-0.5,0.9-1.3,0.9-2.2
					C155,7.8,155,7.6,155,7.4z M131.8,11.3L131.8,11.3C131.8,11.2,131.8,11.2,131.8,11.3h-0.6c0,0-0.1,0-0.1,0.1v0.1l0,0l0,0
					c-0.1-0.2-0.4-0.2-0.6-0.2c-0.6,0-1.1,0.4-1.2,1c0,0.1,0,0.1,0,0.2c0,0.1,0,0.1,0,0.2c0,0.2,0.1,0.3,0.2,0.4l0,0
					c0.2,0.2,0.4,0.3,0.7,0.3c0.4,0,0.6-0.2,0.7-0.3l0,0v0.1l0,0l0,0c0,0,0,0,0.1,0h0.5c0.1,0,0.1-0.1,0.1-0.1L131.8,11.3
					C131.9,11.3,131.9,11.3,131.8,11.3z M130.5,12.7c-0.1,0-0.3,0-0.3-0.1c-0.1-0.1-0.1-0.2-0.1-0.4c0-0.1,0-0.1,0.1-0.2
					c0-0.1,0.1-0.1,0.1-0.2c0.1-0.1,0.2-0.1,0.4-0.1c0.1,0,0.3,0,0.3,0.1l0,0c0.1,0.1,0.1,0.2,0.1,0.4
					C131,12.5,130.8,12.7,130.5,12.7z M129.3,10.5L129.3,10.5c-0.1-0.1-0.1-0.1-0.2-0.1c0,0-0.1-0.1-0.2-0.1c-0.1,0-0.3-0.1-0.5-0.1
					h-1.1c-0.1,0-0.1,0.1-0.1,0.1l-0.4,2.8l0,0c0,0,0,0.1,0.1,0.1l0,0h0.5c0.1,0,0.1-0.1,0.1-0.1l0.1-0.7v-0.1h0.1h0.3
					c0.7,0,1.1-0.3,1.2-1l0,0C129.5,10.9,129.5,10.7,129.3,10.5z M128,10.9L128,10.9L128,10.9L128,10.9C128,10.8,128,10.8,128,10.9
					C128,10.8,128,10.8,128,10.9l0.2-0.1c0.2,0,0.4,0,0.5,0.1l0,0c0.1,0.1,0.1,0.2,0.1,0.3s-0.1,0.2-0.1,0.3
					c-0.1,0.1-0.3,0.1-0.5,0.1H128V10.9z M134.6,11.3C134.6,11.2,134.6,11.2,134.6,11.3L134.6,11.3H134c0,0-0.1,0-0.1,0.1l-0.7,1.1
					l0,0l-0.3-1l0,0l0,0c0,0,0,0-0.1,0h-0.5c-0.1,0-0.1,0-0.1,0.1l0,0l0.6,1.7l0,0l-0.5,0.8c0,0,0,0,0,0.1l0,0c0,0,0,0.1,0.1,0.1
					h0.5c0,0,0.1,0,0.1-0.1l1.7-2.5C134.6,11.4,134.6,11.3,134.6,11.3L134.6,11.3z M139.5,11.3L139.5,11.3
					C139.5,11.2,139.5,11.2,139.5,11.3h-0.6c0,0-0.1,0-0.1,0.1v0.1l0,0l0,0c-0.1-0.2-0.4-0.2-0.6-0.2c-0.6,0-1.1,0.4-1.2,1
					c0,0.1,0,0.1,0,0.2c0,0.1,0,0.1,0,0.2c0,0.2,0.1,0.3,0.2,0.4l0,0c0.2,0.2,0.4,0.3,0.7,0.3c0.4,0,0.6-0.2,0.7-0.3l0,0v0.1l0,0
					l0,0c0,0,0,0,0.1,0h0.5c0.1,0,0.1-0.1,0.1-0.1L139.5,11.3C139.6,11.3,139.6,11.3,139.5,11.3z M138.2,12.7c-0.1,0-0.1,0-0.2,0
					h-0.1c0,0,0,0-0.1-0.1l-0.1-0.1c0,0,0,0,0-0.1s0-0.1,0-0.2c0-0.1,0.1-0.2,0.1-0.3c0.1-0.1,0.3-0.2,0.5-0.2c0.1,0,0.3,0,0.3,0.1
					l0,0c0.1,0.1,0.1,0.2,0.1,0.4l0,0c0,0.1-0.1,0.2-0.1,0.3C138.5,12.6,138.3,12.7,138.2,12.7z M137.1,10.6
					C137.1,10.6,137.1,10.5,137.1,10.6c-0.1-0.1-0.1-0.2-0.2-0.2c0,0-0.1,0-0.1-0.1c-0.1-0.1-0.3-0.1-0.5-0.1h-1.1
					c-0.1,0-0.1,0.1-0.1,0.1l-0.4,2.8l0,0c0,0,0,0.1,0.1,0.1l0,0h0.6h0.1c0,0,0,0,0-0.1l0.1-0.8c0-0.1,0.1-0.1,0.1-0.1h0.3
					c0.7,0,1.1-0.3,1.2-1l0,0C137.2,10.9,137.2,10.7,137.1,10.6z M135.7,10.9L135.7,10.9L135.7,10.9L135.7,10.9
					C135.7,10.8,135.7,10.8,135.7,10.9C135.7,10.8,135.7,10.8,135.7,10.9l0.2-0.1c0.2,0,0.4,0,0.5,0.1l0,0c0.1,0.1,0.1,0.2,0.1,0.3
					s-0.1,0.2-0.1,0.3c-0.1,0.1-0.3,0.1-0.5,0.1h-0.2V10.9z M140.7,10.2L140.7,10.2L140.7,10.2L140.7,10.2h-0.6c0,0,0,0-0.1,0l0,0
					l0,0l0,0l0,0l-0.4,2.8v0.1l0,0h0.4c0.1,0,0.1-0.1,0.1-0.1L140.7,10.2C140.7,10.3,140.7,10.3,140.7,10.2z M137.1,4.4
					c0-0.1-0.1-0.3-0.2-0.4c-0.1-0.1-0.2-0.2-0.3-0.3c0.1-0.6,0-1-0.3-1.4l0,0c-0.1-0.1-0.2-0.2-0.3-0.3l0,0
					c-0.1-0.1-0.3-0.1-0.4-0.2c-0.3-0.1-0.7-0.1-1.1-0.1H132h-0.1c0,0-0.1,0-0.1,0.1c-0.1,0.1-0.1,0.1-0.1,0.2l-1,6.3l0,0l0,0
					c0,0.1,0,0.1,0.1,0.1l0.1,0.1h1.5l-0.1,0.6v0.1c0,0,0,0.1,0.1,0.1c0,0,0,0,0.1,0h1.2c0.1,0,0.3-0.1,0.3-0.3V8.9l0.2-1.5V7.3
					c0-0.1,0.1-0.3,0.3-0.3h0.2c1.2,0,2.1-0.5,2.4-1.9C137.2,5.1,137.2,4.7,137.1,4.4z M136.4,4C136.4,4,136.5,4,136.4,4
					c-0.1,0.6-0.3,1-0.6,1.3c-0.5,0.6-1.2,0.8-2.1,0.8H133c-0.1,0-0.2,0-0.2,0.1l-0.1,0.1l0,0l0,0l0.4-2.5c0-0.1,0-0.1,0.1-0.1
					c0,0,0,0,0.1-0.1c0,0,0,0,0.1,0h0.1h1.9c0.2,0,0.4,0,0.6,0c0.1,0,0.1,0,0.2,0c0.1,0,0.1,0,0.1,0s0,0,0.1,0l0,0c0,0,0,0,0,0.1
					L136.4,4L136.4,4z M80.8,7.9c0-1.5,0.6-2.8,1.7-3.6c-0.8-0.7-1.9-1.1-3.1-1.1c-2.6,0-4.7,2.1-4.7,4.8s2.1,4.8,4.7,4.8
					c1.2,0,2.2-0.4,3.1-1.1C81.4,10.7,80.8,9.4,80.8,7.9z M85.5,3.1c-0.6,0-1.1,0.1-1.7,0.3c-0.5,0.2-1,0.5-1.4,0.8
					c1,0.9,1.7,2.2,1.7,3.6c0,1.5-0.6,2.8-1.7,3.6c0.1,0.1,0.2,0.2,0.3,0.3c0.2,0.2,0.5,0.3,0.7,0.4c0.1,0.1,0.2,0.1,0.4,0.2
					c0.2,0.1,0.3,0.1,0.5,0.1c0.2,0.1,0.5,0.1,0.8,0.1c0.1,0,0.3,0,0.4,0c2.6,0,4.7-2.1,4.7-4.8S88.1,3.1,85.5,3.1z M113.2,7H111
					v0.7h1.9v0.7H111v0.7h2.2l0,0l1-1.1L113.2,7z M102,6.9l-0.6,1.4h1.2L102,6.9z M113.2,7H111v0.7h1.9v0.7H111v0.7h2.2l0,0l1-1.1
					L113.2,7z M113.2,7H111v0.7h1.9v0.7H111v0.7h2.2l0,0l1-1.1L113.2,7z M102,6.9l-0.6,1.4h1.2L102,6.9z M116.4,8.1l2.3-2.5h-3.1
					l-0.7,0.8l-0.7-0.8h-6.8l-0.6,1.3l-0.6-1.3h-2.7v0.6l-0.3-0.6h-2.3l-2.3,5h2.7l0.3-0.8h0.8l0.3,0.8h3V9.9l0.3,0.6h1.5l0.3-0.6
					v0.6h6.2l0.8-0.8l0.7,0.8l0,0h3.2l0,0l0,0L116.4,8.1z M109.3,9.9h-0.9V7l-1.3,2.8h-0.8L105.1,7v2.8h-1.8L102.9,9H101l-0.3,0.8
					h-1l1.6-3.6h1.3l1.5,3.4V6.3h1.4l1.2,2.4l1.1-2.4h1.4v3.6H109.3z M113.6,9.9h-3.5V6.3h3.6l1.1,1.2l0,0l1.1-1.2h1.1l-1.7,1.8l0,0
					l1.7,1.8h-1.1l0,0l-1.1-1.2l0,0L113.6,9.9z M111,7v0.7h1.9v0.7H111v0.7h2.2l0,0l1-1.1l-1-1.1H111V7z M101.4,8.3h1.2L102,6.9
					L101.4,8.3z M102,6.9l-0.6,1.4h1.2L102,6.9z M113.2,7H111v0.7h1.9v0.7H111v0.7h2.2l0,0l1-1.1L113.2,7z M102,6.9l-0.6,1.4h1.2
					L102,6.9z M55.2,5.6L55.2,5.6l-1.5,3.6l-0.6-3V6.1c-0.1-0.2-0.3-0.4-0.6-0.4h-2.4v0.2C50.6,6,51,6.1,51.4,6.3l0.1,0.1l0.1,0.1
					l0,0c0.1,0.1,0.1,0.2,0.1,0.3l0,0l1.1,4.2h1.5l2.2-5.2l0,0l0,0h-1.3V5.6z M61,6.7c0.5,0,0.9,0,1.3,0.2l0.2-1.1
					c-0.4-0.2-0.9-0.2-1.3-0.2c-1.3,0-2.3,0.7-2.3,1.7c0,0.8,0.7,1.2,1.2,1.4s0.7,0.4,0.7,0.6c0,0.4-0.4,0.5-0.8,0.5
					c-0.5,0-1-0.1-1.4-0.3l-0.2,1.1c0.5,0.2,1,0.3,1.5,0.3c1.5,0,2.4-0.7,2.4-1.8c0-1.4-1.9-1.5-1.9-2.1l0,0
					C60.4,6.8,60.7,6.7,61,6.7z M57.2,5.7L56.1,11h1.4l1.1-5.3H57.2z M66.1,5.7h-1.2c-0.2,0-0.4,0.1-0.5,0.2c0,0.1-0.1,0.1-0.1,0.2
					l-2,4.9h1.4l0.3-0.8h1.8L66,11h1.3L66.1,5.7z M64.3,9.1l0.7-2l0,0l0.4,2H64.3z M33.4,3.1v5.1h0.2V3.1H33.4z M33.1,3.1v5.1h0.2
					V3.1H33.1z M34.4,3.1v5.1h0.2V3.1H34.4z M30.6,3.1v5.1h0.2V3.1H30.6z M35.4,3.1v5.1h0.2V3.1H35.4z M31.9,3.1v5.1h0.2V3.1H31.9z
					 M32.2,3.1v5.1h0.3V3.1H32.2z M30.1,3.1v5.1h0.3V3.1H30.1z M37.4,3.1v5.1h0.3V3.1H37.4z M41.9,3.1v5.1H42L41.9,3.1L41.9,3.1z
					 M41,3.1v5.1h0.2V3.1H41z M41.5,3.1v5.1h0.2V3.1H41.5z M37.8,3.1v5.1H38V3.1H37.8z M40.3,3.1v5.1h0.2V3.1H40.3z M38.3,3.1v5.1
					h0.6V3.1H38.3z M25.3,3.1v5.1h0.2V3.1H25.3z M33.7,3.1v5.1h0.2V3.1H33.7z M29,3.1v5.1h0.5V3.1H29z M28.1,3.1v5.1h0.2V3.1H28.1z
					 M30.9,3.1v5.1h0.3V3.1H30.9z M34.1,3.1v5.1h0.2V3.1H34.1z M27.2,3.1v5.1h0.7V3.1H27.2z M39.5,3.1v5.1H40V3.1H39.5z M26.9,3.1
					v5.1H27V3.1H26.9z M28.5,3.1v5.1h0.3V3.1H28.5z M26.2,3.1v5.1h0.3V3.1H26.2z M25.7,3.1v5.1h0.2V3.1H25.7z M36.6,3.1v5.1H37V3.1
					H36.6z M35.9,3.1v5.1h0.5V3.1H35.9z M34.6,12.4v-1h1.6v-0.3h-1.6v-0.9h1.7V9.8h-2.1v2.9h2.2v-0.3C36.4,12.4,34.6,12.4,34.6,12.4
					z M31,10.5L31,10.5c0-0.1-0.1-0.1-0.1-0.2c0-0.1-0.1-0.1-0.1-0.1c-0.1-0.1-0.2-0.2-0.3-0.2c-0.2-0.1-0.5-0.2-0.7-0.2
					s-0.4,0-0.6,0.1s-0.3,0.2-0.5,0.3c-0.3,0.3-0.4,0.7-0.4,1.1c0,0.3,0.1,0.5,0.2,0.7c0.1,0.1,0.1,0.2,0.2,0.3s0.2,0.2,0.3,0.2
					c0.2,0.1,0.5,0.2,0.7,0.2h0.1h0.1c0.1,0,0.2,0,0.4-0.1c0.1,0,0.1,0,0.2-0.1c0.1,0,0.1-0.1,0.2-0.1s0.1-0.1,0.1-0.1
					c0.1-0.1,0.2-0.2,0.2-0.3c0.1-0.2,0.2-0.5,0.2-0.8C31.1,11,31.1,10.8,31,10.5z M30.7,11.3c0,0.3-0.1,0.6-0.3,0.9l0,0
					c-0.1,0.1-0.2,0.2-0.3,0.2c-0.1,0.1-0.3,0.1-0.4,0.1s-0.3,0-0.4-0.1s-0.2-0.1-0.3-0.2l0,0c-0.2-0.2-0.3-0.5-0.3-0.8v-0.1
					c0-0.2,0-0.3,0.1-0.5s0.1-0.3,0.2-0.4c0.1-0.1,0.2-0.2,0.3-0.2l0,0c0.1,0,0.3-0.1,0.4-0.1s0.2,0,0.3,0h0.1c0,0,0.1,0,0.1,0.1
					c0,0,0.1,0,0.1,0.1l0.1,0.1l0.1,0.1l0.1,0.1C30.7,10.9,30.7,11.1,30.7,11.3L30.7,11.3z M36.9,9.8v0.3h1v2.6h0.4v-2.6h1V9.8H36.9
					z M32.2,12.4V9.8h-0.4v2.9h1.8v-0.3C33.6,12.4,32.2,12.4,32.2,12.4z M42.2,10.5L42.2,10.5c-0.1-0.2-0.3-0.4-0.5-0.5
					S41.2,9.8,41,9.8s-0.4,0-0.6,0.1c-0.2,0.1-0.3,0.2-0.5,0.3c-0.3,0.3-0.4,0.7-0.4,1.1c0,0.3,0.1,0.5,0.2,0.7
					c0.1,0.1,0.1,0.2,0.2,0.3c0.1,0.1,0.2,0.2,0.3,0.2c0.2,0.1,0.5,0.2,0.7,0.2H41h0.1c0.1,0,0.2,0,0.4-0.1c0.1,0,0.1,0,0.2-0.1
					c0.1,0,0.1-0.1,0.2-0.1c0.1,0,0.1-0.1,0.1-0.1c0.1-0.1,0.2-0.2,0.2-0.3c0.1-0.2,0.2-0.5,0.2-0.8C42.4,11,42.3,10.8,42.2,10.5z
					 M42,11.3c0,0.3-0.1,0.6-0.3,0.9l0,0c-0.1,0.1-0.2,0.2-0.3,0.2c-0.1,0.1-0.3,0.1-0.4,0.1s-0.3,0-0.4-0.1
					c-0.1-0.1-0.2-0.1-0.3-0.2l0,0C40,12,40,11.7,40,11.4v-0.1c0-0.2,0-0.3,0.1-0.5s0.1-0.3,0.2-0.4c0.1-0.1,0.2-0.2,0.3-0.2
					s0.3-0.1,0.4-0.1c0.2,0,0.4,0,0.5,0.1c0.2,0.1,0.3,0.2,0.4,0.4C41.9,10.9,42,11.1,42,11.3L42,11.3z M27.6,11.5
					C27.6,11.5,27.6,11.4,27.6,11.5c-0.2-0.2-0.3-0.2-0.4-0.3l0,0c0.1,0,0.1-0.1,0.2-0.1s0.1-0.1,0.1-0.1c0.1-0.1,0.1-0.2,0.1-0.4
					c0-0.1,0-0.3-0.1-0.4c0-0.1-0.1-0.1-0.1-0.2c0,0-0.1,0-0.1-0.1h-0.1c-0.2-0.1-0.4-0.1-0.5-0.1h-1.1v2.9h1.1c0.2,0,0.3,0,0.5,0
					c0.1,0,0.2-0.1,0.3-0.1c0.1-0.1,0.2-0.2,0.2-0.3c0.1-0.1,0.1-0.3,0.1-0.4C27.8,11.8,27.7,11.6,27.6,11.5z M26,11.1v-0.9h0.6
					c0.1,0,0.3,0,0.4,0s0.2,0.1,0.2,0.2c0,0.1,0.1,0.2,0.1,0.3s0,0.2-0.1,0.3c-0.1,0-0.2,0-0.2,0c-0.1,0-0.2,0-0.4,0H26V11.1
					L26,11.1L26,11.1z M27.4,11.9c0,0.1,0,0.2-0.1,0.2c0,0.1-0.1,0.1-0.1,0.2c-0.1,0-0.1,0.1-0.2,0.1s-0.2,0-0.3,0H26v-1h0.7
					c0.1,0,0.3,0,0.4,0c0,0,0.1,0,0.1,0.1c0,0,0,0,0.1,0c0,0,0,0,0.1,0.1l0.1,0.1C27.4,11.8,27.4,11.9,27.4,11.9L27.4,11.9z"/>
			</g>
		</g>
	</g>
</g>
</svg>
